<?xml version="1.0" standalone="no"?>
<!DOCTYPE svg PUBLIC "-//W3C//DTD SVG 1.1//EN" "http://www.w3.org/Graphics/SVG/1.1/DTD/svg11.dtd" >
<svg xmlns="http://www.w3.org/2000/svg">
<metadata></metadata>
<defs>
<font id="ge_dinar_twomedium" horiz-adv-x="0" >
<font-face units-per-em="2048" ascent="1638" descent="-410" />
<missing-glyph horiz-adv-x="329" />
<glyph unicode="&#x627;&#x653;" horiz-adv-x="483" d="M399 1323l-256 -20l31 -254v-1049h203v1051zM543 1550l-76 33q-29 -74 -84 -74q-39 0 -104 43q-94 66 -170 66q-111 0 -160 -137l76 -33q31 74 84 74q43 0 104 -43q90 -68 164 -68q111 0 166 139z" />
<glyph unicode="&#x627;&#x654;" horiz-adv-x="483" d="M399 1323l-256 -20l31 -254v-1049h203v1051zM453 1417l-70 84l-76 -8h-100q0 129 86 129q25 2 74 -39l24 64q-59 41 -123 41q-76 0 -120 -54.5t-44 -140.5h-73v-76h422z" />
<glyph unicode="&#x648;&#x654;" horiz-adv-x="966" d="M883 84v782h-318q-209 0 -336 -147q-117 -137 -116 -352q0 -170 94 -285q98 -127 254 -127q109 0 219 35q-27 -291 -281 -359l43 -86q441 115 441 539zM682 129q-88 -35 -178 -35q-190 0 -191 305q0 160 69 252t191 92h109v-614zM901 1018l-110 137l-117 -10h-162 q0 170 137 176q59 0 117 -47l37 96q-76 57 -197 57q-256 0 -256 -282h-119v-127h670z" />
<glyph unicode="&#x627;&#x655;" horiz-adv-x="483" d="M399 1323l-256 -20l31 -254v-1049h203v1051zM453 -391l-70 86l-76 -8h-100q0 125 86 129q29 0 74 -39l24 63q-59 43 -123 43q-76 0 -120 -55t-44 -141h-73v-78h422z" />
<glyph unicode="&#x64a;&#x654;" horiz-adv-x="1433" d="M467 684l-109 137l-118 -14h-162q0 158 137 160q63 4 117 -45l37 104q-90 63 -193 64q-260 0 -260 -283h-117v-123h668zM1350 8v135h-379q-190 0 -191 256q0 328 254 328h183l30 137h-196q-215 0 -348.5 -139t-133.5 -363q0 -182 102.5 -286.5t270.5 -104.5h197 q2 -92 -62 -180q-74 -106 -190 -123h-244q-195 0 -300 138.5t-105 379.5v367h-201v-371q0 -297 137 -465q152 -182 440 -182h320q184 29 299 162q117 135 117 311z" />
<glyph unicode="&#x64c;&#x651;" arabic-form="isolated" d="M641 1812q-4 16 -23 33l-6 4q23 51 23 88q0 66 -60 66q-33 0 -79 -41q-45 -39 -45 -72q0 -31 67 -82q-43 -57 -190 -94q63 51 63 98q0 63 -72 64q-70 0 -104 -84q41 47 70 47q47 0 47 -39q0 -47 -96 -108l10 -23q135 10 178 21q98 23 149 86l41 -33q27 51 27 69z M569 1655l-47 -94q25 -55 29 -86q0 -14 -6 -20.5t-17 -2.5q-59 10 -59 49q0 4 4 31t4 35q4 41 -24 69q-10 -18 -22.5 -33.5t-16.5 -21.5q14 -47 10 -82q4 -25 -7 -40t-34 -13q-51 8 -37 67q23 84 -18 123q-10 -18 -22.5 -34.5t-14.5 -20.5q10 -25 2 -106q-4 -68 43 -91 q57 -31 110 31q31 -53 84 -41q70 14 70 117q0 68 -31 164zM565 1884l-43 31q27 18 37 14q14 -8 6 -45z" />
<glyph unicode="&#x64d;&#x651;" arabic-form="isolated" d="M539 1925l-47 -96q25 -55 28 -86q0 -23 -22 -23q-59 10 -60 52q0 6 4 30.5t4 32.5q4 41 -24 70q-10 -16 -22.5 -31.5t-16.5 -24.5q14 -47 10 -82q4 -25 -7 -40t-34 -9q-53 4 -37 64q20 82 -18 123q-8 -16 -20.5 -31.5t-16.5 -24.5q10 -25 2 -104q-4 -70 43 -92 q59 -27 111 30q31 -49 84 -38q70 14 69 114q1 72 -30 166zM702 1628l-14 6q-205 -39 -422 -73q-57 -35 -88 -72l449 72q55 32 75 67zM645 1513l-10 7q-205 -39 -422 -74q-57 -35 -88 -72l444 72q58 30 76 67z" />
<glyph unicode="&#x64e;&#x651;" arabic-form="isolated" d="M657 1784l-12 6l-422 -74q-59 -37 -86 -71l447 71q50 33 73 68zM530 1655l-47 -92q29 -63 29 -90q2 -12 -4 -17.5t-19 -1.5q-59 10 -59 47q0 8 4 34t4 30q6 43 -24 69q-31 -45 -37 -55q12 -49 12 -78q2 -25 -10 -40t-35 -13q-51 6 -37 63q20 88 -16 123q-35 -49 -37 -55 q8 -14 4 -102q-6 -70 39 -91q61 -27 111 31q31 -53 88 -41q66 16 65 113q0 72 -31 166z" />
<glyph unicode="&#x64f;&#x651;" arabic-form="isolated" d="M631 1816.5q-4 16.5 -21 30.5l-6 6q18 39 19 78q0 68 -64 68q-53 0 -100 -66q-16 -23 -17 -39q0 -27 66 -79q-47 -66 -281 -115l11 -27q133 6 178 21q98 23 149 86l41 -33q29 53 25 69.5zM553 1640l-47 -94q29 -68 29 -88q2 -14 -3.5 -19t-19.5 -3q-57 8 -57 51 q0 39 10 63q2 41 -29 70q-8 -16 -20.5 -31.5t-16.5 -23.5q12 -53 13 -82q2 -27 -10.5 -41.5t-34.5 -9.5q-51 8 -37 65q23 84 -17 123q-8 -14 -20 -29.5t-17 -25.5q12 -16 3 -107q-2 -68 40 -88q61 -31 111 31q35 -53 88 -43q70 14 70 117q0 67 -35 165zM559 1888l-39 29 q20 12 31 8q16 -4 8 -37z" />
<glyph unicode="&#x650;&#x651;" arabic-form="isolated" d="M559 1817l-47 -93q27 -59 27 -90q4 -10 -2.5 -16t-18.5 -2q-59 10 -59 47q0 8 4 33.5t4 29.5q6 43 -25 70q-31 -45 -36 -55q10 -55 10 -78q4 -25 -9.5 -40t-33.5 -13q-51 6 -37 63q18 88 -17 123q-35 -49 -36 -55q8 -16 2 -103q-6 -70 39 -90q61 -27 112 31 q31 -53 86 -41q68 14 68 113q0 70 -31 166zM684 1526l-10 6l-422 -74q-59 -33 -86 -72l446 72q54 35 72 68z" />
<glyph unicode="&#xfedf;&#xfee0;&#xfeea;" horiz-adv-x="2390" arabic-form="isolated" d="M2271 305v1026l-239 -57l34 -270v-652q0 -168 -149 -168h-197q-133 10 -133 168v967l-244 -55l39 -275v-637q0 -168 -147 -168h-195q-150 0 -149 166v686q-113 -20 -246 -55l12 -92h-65q-215 0 -348 -123q-131 -119 -131 -320q0 -184 94 -292.5t258 -108.5q160 4 264 59 q98 -104 260 -104h299q119 0 195 63q78 -63 203 -63h280q141 0 223 81t82 224zM690 756v-516q-86 -25 -178 -25q-186 0 -190 268q0 115 75 191q74 74 183 78q32 0 110 4zM1575 1702l-47 -92q27 -61 28 -84q0 -23 -26 -23q-55 12 -55 51q0 4 4 29t4 33q2 39 -25 70 q-8 -12 -20.5 -29t-18.5 -31q10 -51 11 -74q4 -27 -8.5 -42t-37.5 -9q-47 6 -32 62q20 82 -21 123q-8 -16 -19.5 -32t-15.5 -28q10 -18 2 -100q-6 -63 43 -86q59 -29 111 28q31 -51 84 -38q70 14 70 112q0 68 -31 160z" />
<glyph unicode="&#xfedf;&#xfe82;" horiz-adv-x="1112" arabic-form="isolated" d="M1028 305v1014l-252 -55l49 -275v-731l-471 813h-270l199 -237l381 -650h-428l-89 -184h582q141 0 221 92q78 84 78 213zM543 1403l-76 33q-29 -74 -84 -74q-39 0 -104 43q-94 66 -170 65q-111 0 -160 -137l76 -33q31 74 84 74q43 0 104 -43q90 -68 164 -67 q111 0 166 139z" />
<glyph unicode="&#xfee0;&#xfe82;" horiz-adv-x="1234" arabic-form="final" d="M1264 0v184h-86q-150 0 -150 209v926l-252 -55l49 -275v-731l-471 813h-270l199 -237l381 -650h-428l-89 -184h582q111 0 189 61q82 -61 210 -61h136zM543 1403l-76 33q-29 -74 -84 -74q-39 0 -104 43q-94 66 -170 65q-111 0 -160 -137l76 -33q31 74 84 74q43 0 104 -43 q90 -68 164 -67q111 0 166 139z" />
<glyph unicode="&#xfedf;&#xfe84;" horiz-adv-x="1112" arabic-form="isolated" d="M1028 305v1014l-252 -55l49 -275v-731l-471 813h-270l199 -237l381 -650h-428l-89 -184h582q141 0 221 92q78 84 78 213zM453 1260l-70 83l-76 -8h-100q0 129 86 129q25 2 74 -39l24 64q-59 41 -123 41q-76 0 -120 -54.5t-44 -140.5h-73v-75h422z" />
<glyph unicode="&#xfee0;&#xfe84;" horiz-adv-x="1234" arabic-form="final" d="M1264 0v184h-86q-150 0 -150 209v926l-252 -55l49 -275v-731l-471 813h-270l199 -237l381 -650h-428l-89 -184h582q111 0 189 61q82 -61 210 -61h136zM453 1260l-70 83l-76 -8h-100q0 129 86 129q25 2 74 -39l24 64q-59 41 -123 41q-76 0 -120 -54.5t-44 -140.5h-73v-75 h422z" />
<glyph unicode="&#xfedf;&#xfe88;" horiz-adv-x="1112" arabic-form="isolated" d="M1028 305v1014l-252 -55l49 -275v-731l-471 813h-270l199 -237l381 -650h-428l-89 -184h582q141 0 221 92q78 84 78 213zM453 -391l-70 86l-76 -8h-100q0 125 86 129q29 0 74 -39l24 63q-59 43 -123 43q-76 0 -120 -55t-44 -141h-73v-78h422z" />
<glyph unicode="&#xfee0;&#xfe88;" horiz-adv-x="1234" arabic-form="final" d="M1264 0v184h-86q-150 0 -150 209v926l-252 -55l49 -275v-731l-471 813h-270l199 -237l381 -650h-428l-89 -184h582q111 0 189 61q82 -61 210 -61h136zM453 -391l-70 86l-76 -8h-100q0 125 86 129q29 0 74 -39l24 63q-59 43 -123 43q-76 0 -120 -55t-44 -141h-73v-78h422z " />
<glyph unicode="&#xfedf;&#xfe8e;" horiz-adv-x="1112" arabic-form="isolated" d="M1028 305v1014l-252 -55l49 -275v-731l-471 813h-270l199 -237l381 -650h-428l-89 -184h582q141 0 221 92q78 84 78 213z" />
<glyph unicode="&#xfee0;&#xfe8e;" horiz-adv-x="1234" arabic-form="final" d="M1264 0v184h-86q-150 0 -150 209v926l-252 -55l49 -275v-731l-471 813h-270l199 -237l381 -650h-428l-89 -184h582q111 0 189 61q82 -61 210 -61h136z" />
<glyph unicode="&#x671;" horiz-adv-x="483" arabic-form="isolated" d="M399 1323l-256 -20l31 -254v-1049h203v1051zM483 1421v117q0 92 -129 92q-92 0 -176 -108l4 96l-65 -14v-97q0 -31 -31 -30l-63 8l-9 -64h469zM420 1530v-53h-211q61 104 135 104q76 0 76 -51z" />
<glyph unicode="&#x671;" horiz-adv-x="612" arabic-form="final" d="M641 0v184h-111q-147 0 -147 168v967l-240 -55l35 -263v-696q0 -141 81 -223t222 -82h160zM483 1421v117q0 92 -129 92q-92 0 -176 -108l4 96l-65 -14v-97q0 -31 -31 -30l-63 8l-9 -64h469zM420 1530v-53h-211q61 104 135 104q76 0 76 -51z" />
<glyph unicode="&#x67e;" horiz-adv-x="2007" arabic-form="final" d="M2036 0v184h-168q-150 0 -150 168v514l-241 -55l39 -250v-209q0 -168 -150 -168h-844q-244 0 -243 312q0 115 96 254h-182q-80 -139 -80 -297q0 -203 104 -330q104 -123 281 -123h919q123 0 201 63q78 -63 203 -63h215zM1253 -328q0 51 -36.5 87t-90.5 36 q-51 0 -88 -34.5t-37 -88.5q0 -49 38 -87t87 -38q51 0 89 36t38 89zM926 -328q0 51 -37 87t-90 36q-51 0 -88 -34.5t-37 -88.5q0 -49 38 -87t87 -38q51 0 89 36t38 89zM1087 -643q0 51 -36.5 87t-88 36t-88 -36t-36.5 -89q0 -51 36.5 -87t88 -36t88 36t36.5 89z" />
<glyph unicode="&#x67e;" horiz-adv-x="671" arabic-form="initial" d="M588 297v567l-238 -53l35 -262v-203q0 -162 -149 -162h-265v-184h314q139 0 221 80t82 217zM606 -328q0 51 -35.5 87t-87.5 36q-53 0 -89 -34.5t-36 -88.5q0 -51 36 -88t89 -37q51 0 87 36t36 89zM279 -328q0 51 -36 87t-87.5 36t-88 -34.5t-36.5 -88.5q0 -49 36.5 -87 t88 -38t87.5 36t36 89zM444 -643q0 51 -35.5 87t-89.5 36q-55 0 -90.5 -35t-35.5 -90q0 -51 37.5 -87t89 -36t88 36t36.5 89z" />
<glyph unicode="&#x67e;" horiz-adv-x="737" arabic-form="medial" d="M766 0v184h-102q-150 0 -150 162v520l-244 -55l41 -266v-199q0 -162 -149 -162h-191v-184h244q117 0 197 61q76 -61 200 -61h154zM590 -328q0 51 -36 87t-89 36q-51 0 -89 -34.5t-38 -88.5q0 -49 38 -87t89 -38t88 36t37 89zM262 -328q0 51 -36 87t-89 36 q-51 0 -89 -34.5t-38 -88.5q0 -49 38 -87t89 -38t88 36t37 89zM424 -643q0 51 -36 87t-89 36q-51 0 -87 -35t-36 -90q0 -51 36 -87t87 -36q53 0 89 36t36 89z" />
<glyph unicode="&#x6a4;" horiz-adv-x="1974" arabic-form="final" d="M1487 1511q0 53 -36 90t-87 37q-53 0 -89 -37.5t-36 -89t36 -87t89 -35.5t88 35.5t35 86.5zM1653 1194q0 53 -37 89t-90 36q-49 0 -86 -36t-37 -87q0 -53 36 -89t87 -36q53 0 90 36t37 87zM1325 1194q0 53 -36 89t-89 36q-51 0 -87 -36t-36 -87q0 -55 36 -90t87 -35 q53 0 89 36t36 87zM2001 0v184h-285q104 104 105 267q0 180 -115 294q-125 121 -330 121q-211 0 -329 -118q-119 -117 -119 -297q0 -162 104 -267h-510q-244 0 -243 299q0 113 96 250h-182q-80 -139 -80 -291q0 -199 104 -321q104 -121 281 -121h704q23 0 174 25 q164 -25 172 -25h453zM1602 461q0 -121 -54 -203q-61 -98 -170 -98q-231 0 -231 301q0 129 72 205q63 61 157 61q90 0 154 -61q72 -76 72 -205z" />
<glyph unicode="&#x6a4;" horiz-adv-x="978" arabic-form="initial" d="M629 1511q0 53 -36 90t-89 37q-51 0 -87 -37.5t-36 -89t36 -87t87 -35.5q53 0 89 36.5t36 85.5zM795 1194q0 53 -38 89t-89 36q-49 0 -87 -37t-38 -86q0 -53 36.5 -89t88.5 -36q53 0 90 36t37 87zM467 1194q0 53 -37 89t-88 36t-89 -36t-38 -87q0 -53 38 -89t89 -36 t88 36t37 87zM866 614q0 141 -86 228q-94 94 -266 94q-123 0 -217 -66q-127 -90 -127 -264q0 -324 344 -323q86 0 135 24q-23 -123 -225 -123h-453v-184h437q238 0 348 123t110 395v96zM666 610q0 -119 -2 -166q-66 -31 -158 -30q-133 0 -133 178q0 219 147 219 q146 0 146 -201z" />
<glyph unicode="&#x6a4;" horiz-adv-x="1271" arabic-form="medial" d="M788 1511q0 53 -36.5 90t-88 37t-88 -37.5t-36.5 -89t36.5 -87t88 -35.5t88 36.5t36.5 85.5zM952 1194q0 53 -36.5 89t-88 36t-88.5 -36t-37 -87q0 -53 37 -89t88 -36q53 0 89 36t36 87zM627 1194q0 53 -38 89t-89 36q-49 0 -87 -37t-38 -86q0 -53 37 -89t88 -36 q53 0 90 36t37 87zM1300 0v184h-296q106 104 106 267q0 180 -119 297q-119 119 -327.5 118.5t-327.5 -118.5q-119 -117 -119 -297q0 -162 105 -267h-351v-184h518q23 0 175 25q164 -25 172 -25h464zM891 461q0 -121 -53 -203q-61 -98 -172 -98q-229 0 -230 301q0 129 72 205 q61 61 156 61q92 0 153 -61q74 -74 74 -205z" />
<glyph unicode="&#x686;" horiz-adv-x="1294" arabic-form="final" d="M1323 0v184h-111q-150 0 -149 166v209q0 143 -127 236q-125 92 -301 92q-178 0 -299 -96q-129 -102 -129 -279h151q0 203 248 203q252 0 252 -185v-149h-745v-318q0 -449 561 -518l82 125q-203 23 -322 111t-119 217l-2 209h578q59 -207 289 -207h143zM848 47 q0 82 -84 82t-84 -82q0 -84 84 -84t84 84zM629 47q0 82 -84 82q-80 0 -80 -82q0 -84 80 -84q84 0 84 84zM737 -162q0 80 -84 80q-80 0 -80 -84q0 -80 80 -80q84 0 84 84z" />
<glyph unicode="&#x686;" horiz-adv-x="1224" arabic-form="initial" d="M874 -328q0 51 -34.5 87t-88 36t-89 -34.5t-35.5 -88.5q0 -51 35.5 -88t89.5 -37q51 0 86.5 36t35.5 89zM549 -328q0 51 -36 87t-89 36q-51 0 -88 -34.5t-37 -88.5q0 -49 37 -87t88 -38t88 36t37 89zM713 -643q0 51 -36 87t-89 36q-51 0 -87 -35t-36 -90q0 -51 36 -87 t87 -36q53 0 89 36t36 89zM1141 0q-23 252 -244 567q-242 346 -477 346q-137 0 -231.5 -115.5t-110.5 -314.5l213 25q-29 86 -29 137q0 115 92 115q129 0 297 -230q127 -170 205 -346h-885v-184h1170z" />
<glyph unicode="&#x686;" horiz-adv-x="1222" arabic-form="medial" d="M1249 0v184h-153q-88 242 -254 459q-211 270 -422 270q-137 0 -231.5 -115.5t-110.5 -314.5l213 25q-29 86 -29 137q0 115 92 115q129 0 297 -230q127 -170 205 -346h-885v-184h1278zM874 -328q0 51 -34.5 87t-88 36t-89 -34.5t-35.5 -88.5q0 -51 35.5 -88t89.5 -37 q51 0 86.5 36t35.5 89zM549 -328q0 51 -36 87t-89 36q-51 0 -88 -34.5t-37 -88.5q0 -49 37 -87t88 -38t88 36t37 89zM713 -643q0 51 -36 87t-89 36q-51 0 -87 -35t-36 -90q0 -51 36 -87t87 -36q53 0 89 36t36 89z" />
<glyph unicode="&#x698;" horiz-adv-x="696" arabic-form="final" d="M725 0v184h-115q-150 0 -149 170v512l-244 -55l41 -274l2 -514q0 -305 -283 -396l43 -80q401 111 439 467q43 -14 102 -14h164zM281 1511q0 53 -37 90t-88.5 37t-88 -37.5t-36.5 -89t36.5 -87t88 -35.5t88.5 36.5t37 85.5zM444 1194q0 53 -36.5 89t-88 36t-88 -36 t-36.5 -87q0 -53 36.5 -89t87.5 -36q53 0 89 36t36 87zM119 1194q0 53 -38 89t-89 36q-49 0 -87 -37t-38 -86q0 -53 37 -89t88 -36q53 0 90 36t37 87z" />
<glyph unicode="&#x6cc;" horiz-adv-x="694" arabic-form="initial" d="M588 297v567l-238 -53l35 -262v-203q0 -162 -149 -162h-265v-184h314q139 0 221 80t82 217zM530 -330q0 53 -36.5 89t-88 36t-89 -35.5t-37.5 -87.5q0 -53 37.5 -89t89.5 -36q53 0 88.5 37t35.5 86zM205 -330q0 53 -38 89t-89 36q-49 0 -87 -37t-38 -86q0 -53 37 -89 t88 -36q53 0 90 37t37 86z" />
<glyph unicode="&#x6cc;" horiz-adv-x="737" arabic-form="medial" d="M766 0v184h-102q-150 0 -150 162v528l-244 -53l41 -264v-211q0 -162 -149 -162h-191v-184h244q117 0 197 61q76 -61 200 -61h154zM539 -330q0 53 -37 89t-88.5 36t-87 -35.5t-35.5 -87.5q0 -55 35.5 -90t87.5 -35q53 0 89 37t36 86zM213 -330q0 53 -38 89t-89 36 q-49 0 -87 -37t-38 -86q0 -53 37 -89t88 -36q53 0 90 37t37 86z" />
<glyph unicode="&#xfd3c;" horiz-adv-x="612" arabic-form="final" d="M641 0v184h-111q-147 0 -147 168v967l-240 -55l35 -263v-696q0 -141 81 -223t222 -82h160zM555 1628l-14 6q-129 -25 -422 -71q-61 -37 -86 -74l446 74q58 36 76 65zM500 1513l-13 7q-154 -29 -421 -72q-61 -37 -86 -74l444 74q56 34 76 65z" />
<glyph unicode="&#xfd3d;" horiz-adv-x="483" arabic-form="isolated" d="M399 1323l-256 -20l31 -254v-1049h203v1051zM555 1628l-14 6q-129 -25 -422 -71q-61 -37 -86 -74l446 74q58 36 76 65zM500 1513l-13 7q-154 -29 -421 -72q-61 -37 -86 -74l444 74q56 34 76 65z" />
<glyph unicode="&#x622;" horiz-adv-x="612" arabic-form="final" d="M641 0v184h-111q-147 0 -147 168v967l-240 -55l35 -263v-696q0 -141 81 -223t222 -82h160zM543 1550l-76 33q-29 -74 -84 -74q-39 0 -104 43q-94 66 -170 66q-111 0 -160 -137l76 -33q31 74 84 74q43 0 104 -43q90 -68 164 -68q111 0 166 139z" />
<glyph unicode="&#x623;" horiz-adv-x="612" arabic-form="final" d="M641 0v184h-111q-147 0 -147 168v967l-240 -55l35 -263v-696q0 -141 81 -223t222 -82h160zM453 1417l-70 84l-76 -8h-100q0 129 86 129q25 2 74 -39l24 64q-59 41 -123 41q-76 0 -120 -54.5t-44 -140.5h-73v-76h422z" />
<glyph unicode="&#x624;" horiz-adv-x="1101" arabic-form="final" d="M1128 0v184h-237v707h-299q-215 0 -348 -139q-131 -137 -131 -361q0 -182 114 -291q100 -100 269 -100h194q-16 -272 -278 -373l43 -80q379 98 432 453h241zM684 184h-172q-190 0 -190 244q0 160 68.5 252t189.5 92h104v-588zM901 1018l-110 137l-117 -10h-162 q0 170 137 176q59 0 117 -47l37 96q-76 57 -197 57q-256 0 -256 -282h-119v-127h670z" />
<glyph unicode="&#x625;" horiz-adv-x="612" arabic-form="final" d="M641 0v184h-111q-147 0 -147 168v967l-240 -55l35 -263v-696q0 -141 81 -223t222 -82h160zM453 -391l-70 86l-76 -8h-100q0 125 86 129q29 0 74 -39l24 63q-59 43 -123 43q-76 0 -120 -55t-44 -141h-73v-78h422z" />
<glyph unicode="&#x626;" horiz-adv-x="2004" arabic-form="final" d="M2030 0v184h-166q-147 0 -148 168l2 514h-385q-215 0 -348 -139t-133 -360q0 -184 106 -289q96 -98 259 -103q-2 -90 -66 -174q-72 -102 -188 -123h-244q-195 0 -300.5 133.5t-105.5 374.5v367h-200v-371q0 -295 135 -458q152 -176 442 -177h320q188 20 303 154 q113 127 112 307v135h-170q-193 2 -192 256q0 328 256 328h192v-422q0 -141 82 -223t222 -82h215zM573 684l-108 137l-119 -14h-162q0 158 138 160q63 4 116 -45l37 104q-90 63 -192 64q-260 0 -260 -283h-117v-123h667z" />
<glyph unicode="&#x626;" horiz-adv-x="671" arabic-form="initial" d="M653 997l-108 138l-117 -11h-127q-4 164 137 170q61 0 115 -47q4 14 39 103q-94 68 -195 67q-121 0 -189.5 -80t-68.5 -213h-94v-127h608zM588 297v567l-238 -53l35 -262v-203q0 -162 -149 -162h-265v-184h314q139 0 221 80t82 217z" />
<glyph unicode="&#x626;" horiz-adv-x="737" arabic-form="medial" d="M766 0v184h-102q-150 0 -150 162v520l-244 -55l41 -266v-199q0 -162 -149 -162h-191v-184h244q117 0 197 61q76 -61 200 -61h154zM659 997l-108 138l-117 -11h-127q-4 164 137 170q61 0 115 -47q4 14 39 103q-94 68 -195 67q-123 0 -190.5 -80t-67.5 -213h-94v-127h608z " />
<glyph unicode="&#x627;" horiz-adv-x="612" arabic-form="final" d="M641 0v184h-111q-147 0 -147 168v967l-240 -55l35 -263v-696q0 -141 81 -223t222 -82h160z" />
<glyph unicode="&#x628;" horiz-adv-x="2007" arabic-form="final" d="M2036 0v184h-168q-150 0 -150 168v514l-241 -55l39 -250v-209q0 -168 -150 -168h-844q-244 0 -243 312q0 115 96 254h-182q-80 -139 -80 -297q0 -203 104 -330q104 -123 281 -123h919q123 0 201 63q78 -63 203 -63h215zM1049 -330q0 53 -37 89t-86 36q-53 0 -90 -35.5 t-37 -87.5q0 -55 35.5 -90t91.5 -35q49 0 86 38t37 85z" />
<glyph unicode="&#x628;" horiz-adv-x="671" arabic-form="initial" d="M588 297v567l-238 -53l35 -262v-203q0 -162 -149 -162h-265v-184h314q139 0 221 80t82 217zM477 -330q0 53 -35.5 89t-89.5 36q-51 0 -87 -35.5t-36 -87.5q0 -55 36 -90t87 -35q53 0 89 37t36 86z" />
<glyph unicode="&#x628;" horiz-adv-x="737" arabic-form="medial" d="M766 0v184h-102q-150 0 -150 162v520l-244 -55l41 -266v-199q0 -162 -149 -162h-191v-184h244q117 0 197 61q76 -61 200 -61h154zM530 -330q0 53 -35.5 89t-86.5 36q-53 0 -89 -35.5t-36 -87.5q0 -55 35.5 -90t89.5 -35q49 0 85.5 37t36.5 86z" />
<glyph unicode="&#x629;" horiz-adv-x="1140" arabic-form="final" d="M864 1243q0 55 -35.5 92t-87.5 37q-53 0 -90 -38t-37 -87q0 -53 37 -90t90.5 -37t88 37t34.5 86zM537 1243q0 55 -36 92t-87 37q-53 0 -89 -37t-36 -88q0 -53 35.5 -90t89 -37t88.5 37t35 86zM989 0h180v184h-129q-150 0 -149 166v686q-113 -20 -246 -55l12 -92h-65 q-215 0 -348 -123q-131 -119 -131 -320q0 -184 94 -292.5t258 -108.5q160 4 264 59q98 -104 260 -104zM690 756v-516q-86 -25 -178 -25q-186 0 -190 268q0 115 75 191q74 74 183 78q32 0 110 4z" />
<glyph unicode="&#x62a;" horiz-adv-x="2007" arabic-form="final" d="M1210 858q0 53 -35.5 89t-87.5 36q-53 0 -88.5 -36t-35.5 -87q0 -55 35.5 -90t88.5 -35q51 0 87 36t36 87zM883 858q0 53 -36 89t-87 36q-53 0 -89 -36t-36 -87q0 -55 36 -90t89 -35q51 0 87 36t36 87zM2036 0v184h-168q-150 0 -150 168v514l-241 -55l39 -250v-209 q0 -168 -150 -168h-844q-244 0 -243 312q0 115 96 254h-182q-80 -139 -80 -297q0 -203 104 -330q104 -123 281 -123h919q123 0 201 63q78 -63 203 -63h215z" />
<glyph unicode="&#x62a;" horiz-adv-x="671" arabic-form="initial" d="M610 1194q0 53 -36.5 89t-86.5 36q-53 0 -90 -36t-37 -87q0 -55 36 -90t91 -35q51 0 87 36t36 87zM283 1194q0 53 -37 89t-86 36q-53 0 -90 -36t-37 -87q0 -55 35.5 -90t91.5 -35q53 0 88 36t35 87zM588 297v567l-238 -53l35 -262v-203q0 -162 -149 -162h-265v-184h314 q139 0 221 80t82 217z" />
<glyph unicode="&#x62a;" horiz-adv-x="737" arabic-form="medial" d="M559 1194q0 53 -36 89t-89 36q-51 0 -87 -36t-36 -87q0 -55 36 -90t87 -35q53 0 89 36t36 87zM231 1194q0 53 -35.5 89t-89.5 36q-51 0 -86.5 -36t-35.5 -87q0 -55 35.5 -90t86.5 -35q53 0 89 36t36 87zM766 0v184h-107q-147 0 -147 162v520l-244 -55l43 -266v-199 q0 -162 -151 -162h-189v-184h244q113 0 197 61q76 -61 200 -61h154z" />
<glyph unicode="&#x62b;" horiz-adv-x="2007" arabic-form="final" d="M1047 1180q0 53 -37 89t-90 36q-49 0 -86 -36t-37 -87q0 -53 35.5 -89t87.5 -36q53 0 90 37t37 86zM1210 864q0 53 -36.5 89t-88 36t-89.5 -38t-38 -87q0 -53 38 -88t89 -35q53 0 89 36t36 87zM883 864q0 53 -37 89t-88 36t-89 -38t-38 -87q0 -53 38 -88t89 -35 q53 0 89 36t36 87zM2036 0v184h-168q-150 0 -150 168v514l-241 -55l39 -250v-209q0 -168 -150 -168h-844q-244 0 -243 312q0 115 96 254h-182q-80 -139 -80 -297q0 -203 104 -330q104 -123 281 -123h919q123 0 201 63q78 -63 203 -63h215z" />
<glyph unicode="&#x62b;" horiz-adv-x="671" arabic-form="initial" d="M442 1511q0 53 -36.5 90t-86.5 37q-53 0 -89.5 -37.5t-36.5 -89t36.5 -87t90 -35.5t88 35.5t34.5 86.5zM606 1194q0 53 -35.5 89t-89.5 36q-51 0 -87 -36t-36 -87q0 -55 36 -90t87 -35q53 0 89 36t36 87zM279 1194q0 53 -36 89t-89 36q-49 0 -86 -36t-37 -87 q0 -53 35.5 -89t87.5 -36q53 0 89 36t36 87zM588 297v567l-238 -53l35 -262v-203q0 -162 -149 -162h-265v-184h314q139 0 221 80t82 217z" />
<glyph unicode="&#x62b;" horiz-adv-x="737" arabic-form="medial" d="M397 1511q0 53 -36.5 90t-86.5 37q-53 0 -90 -37.5t-37 -89t37 -87t90.5 -35.5t88 35.5t34.5 86.5zM561 1194q0 53 -37 89t-88 36t-87 -36t-36 -87q0 -55 36 -90t87 -35q53 0 89 36t36 87zM236 1194q0 53 -38 89t-89 36q-49 0 -86 -36t-37 -87q0 -53 35.5 -89t87.5 -36 q53 0 90 36t37 87zM766 0v184h-102q-150 0 -150 162v520l-244 -55l41 -266v-199q0 -162 -149 -162h-191v-184h244q117 0 197 61q76 -61 200 -61h154z" />
<glyph unicode="&#x62c;" horiz-adv-x="1294" arabic-form="final" d="M1323 0v184h-111q-150 0 -149 166v232q0 143 -127 235q-125 92 -301 92q-178 0 -299 -96q-129 -100 -129 -278h112q0 90 83 146t204 56q252 0 252 -184v-172h-745v-318q0 -449 561 -518l47 93q-188 20 -297 120.5t-109 239.5l-2 209h578q59 -207 289 -207h143zM786 -47 q0 55 -36.5 92t-85.5 37q-53 0 -90 -38t-37 -89q0 -53 36.5 -89t90.5 -36q49 0 85.5 37t36.5 86z" />
<glyph unicode="&#x62c;" horiz-adv-x="1224" arabic-form="initial" d="M1141 0q-23 252 -244 567q-242 346 -477 346q-137 0 -231.5 -115.5t-110.5 -314.5l213 25q-29 86 -29 137q0 115 92 115q129 0 297 -230q127 -170 205 -346h-885v-184h1170zM719 -330q0 53 -37 89t-86 36q-53 0 -90 -35.5t-37 -87.5q0 -55 36 -90t91 -35q53 0 88 37 t35 86z" />
<glyph unicode="&#x62c;" horiz-adv-x="1222" arabic-form="medial" d="M1249 0v184h-153q-88 242 -254 459q-211 270 -422 270q-137 0 -231.5 -115.5t-110.5 -314.5l213 25q-29 86 -29 137q0 115 92 115q129 0 297 -230q127 -170 205 -346h-885v-184h1278zM719 -330q0 53 -37 89t-86 36q-53 0 -90 -35.5t-37 -87.5q0 -55 36 -90t91 -35 q53 0 88 37t35 86z" />
<glyph unicode="&#x62d;" horiz-adv-x="1294" arabic-form="final" d="M1323 0v184h-111q-150 0 -149 166v232q0 143 -127 235q-125 92 -301 92q-178 0 -299 -96q-129 -100 -129 -278h112q0 90 83 146t204 56q252 0 252 -184v-172h-745v-318q0 -449 561 -518l47 93q-188 20 -297 120.5t-109 239.5l-2 209h578q59 -207 289 -207h143z" />
<glyph unicode="&#x62d;" horiz-adv-x="1224" arabic-form="initial" d="M1141 0q-23 252 -244 567q-242 346 -477 346q-137 0 -231.5 -115.5t-110.5 -314.5l213 25q-29 86 -29 137q0 115 92 115q129 0 297 -230q127 -170 205 -346h-885v-184h1170z" />
<glyph unicode="&#x62d;" horiz-adv-x="1222" arabic-form="medial" d="M1249 0v184h-153q-88 242 -254 459q-211 270 -422 270q-137 0 -231.5 -115.5t-110.5 -314.5l213 25q-29 86 -29 137q0 115 92 115q129 0 297 -230q127 -170 205 -346h-885v-184h1278z" />
<glyph unicode="&#x62e;" horiz-adv-x="1294" arabic-form="final" d="M760 1194q0 53 -36 89t-87 36q-53 0 -89 -36t-36 -89t36 -88t89 -35q51 0 87 36t36 87zM1323 0v184h-111q-150 0 -149 166v232q0 143 -127 235q-125 92 -301 92q-178 0 -299 -96q-129 -100 -129 -278h112q0 90 83 146t204 56q252 0 252 -184v-172h-745v-318 q0 -449 561 -518l47 93q-188 20 -297 120.5t-109 239.5l-2 209h578q59 -207 289 -207h143z" />
<glyph unicode="&#x62e;" horiz-adv-x="1224" arabic-form="initial" d="M610 1194q0 53 -36.5 89t-90.5 36q-49 0 -86 -36t-37 -89t36 -88t87 -35q53 0 90 36t37 87zM1141 0q-23 252 -244 567q-242 346 -477 346q-137 0 -231.5 -115.5t-110.5 -314.5l213 25q-29 86 -29 137q0 115 92 115q129 0 297 -230q127 -170 205 -346h-885v-184h1170z" />
<glyph unicode="&#x62e;" horiz-adv-x="1222" arabic-form="medial" d="M610 1194q0 53 -36.5 89t-90.5 36q-49 0 -86 -36t-37 -89t36 -88t87 -35q53 0 90 36t37 87zM1249 0v184h-153q-88 242 -254 459q-211 270 -422 270q-137 0 -231.5 -115.5t-110.5 -314.5l213 25q-29 86 -29 137q0 115 92 115q129 0 297 -230q127 -170 205 -346h-885v-184 h1278z" />
<glyph unicode="&#x62f;" horiz-adv-x="1009" arabic-form="final" d="M1028 0v184h-133v2v222q-2 199 -117 327q-113 131 -301 131q-47 -8 -63 -8q10 -92 10 -115q31 14 63 15q88 0 144 -78q59 -90 59 -238v-215l-6 -43h-518l-53 -184h915z" />
<glyph unicode="&#x630;" horiz-adv-x="1009" arabic-form="final" d="M618 1194q0 53 -36.5 89t-85.5 36q-53 0 -90 -36t-37 -89t36.5 -88t90 -35t88 36t34.5 87zM1028 0v184h-133v2v222q-2 199 -117 327q-113 131 -301 131q-47 -8 -63 -8q10 -92 10 -115q31 14 63 15q88 0 144 -78q59 -90 59 -238v-215l-6 -43h-518l-53 -184h915z" />
<glyph unicode="&#x631;" horiz-adv-x="696" arabic-form="final" d="M725 0v184h-115q-150 0 -149 170v512l-244 -55l41 -274l2 -514q0 -307 -285 -396l45 -80q401 111 439 467q43 -14 102 -14h164z" />
<glyph unicode="&#x632;" horiz-adv-x="696" arabic-form="final" d="M444 1194q0 53 -36.5 89t-88 36t-87 -36t-35.5 -89t35.5 -88t86.5 -35q53 0 89 36t36 87zM725 0v184h-115q-150 0 -149 170v512l-244 -55l41 -274l2 -514q0 -305 -283 -396l43 -80q401 111 439 467q43 -14 102 -14h164z" />
<glyph unicode="&#x633;" horiz-adv-x="2525" arabic-form="final" d="M2554 0v184h-62q-147 0 -147 160v522l-244 -55l39 -266v-201q0 -162 -145 -162q-100 0 -176 76v528l-203 -45v-397q0 -162 -146 -162q-102 0 -178 70v577l-205 -49v-602q0 -244 -116 -393q-115 -139 -273 -139q-190 0 -297.5 147.5t-107.5 405.5v389h-201v-398 q0 -315 137 -489q150 -193 443 -193t454 175q150 158 164 399q102 -82 234 -82q164 0 248 117q113 -117 274 -117q117 0 195 61q82 -61 204 -61h109z" />
<glyph unicode="&#x633;" horiz-adv-x="1669" arabic-form="initial" d="M1567 297v569l-242 -55l37 -266v-201q0 -162 -145 -162q-100 0 -177 76v528l-200 -45v-397q0 -162 -146 -162q-104 0 -182 72v22v510l-201 -45l-4 -395q0 -162 -147 -162h-189v-184h238q135 0 219 78q29 29 39 45q119 -123 278 -123q164 0 248 117q113 -117 277 -117 q135 0 216 81t81 216z" />
<glyph unicode="&#x633;" horiz-adv-x="1746" arabic-form="medial" d="M1774 0v184h-62q-147 0 -147 160v522l-244 -55l39 -266v-201q0 -162 -146 -162q-100 0 -176 76v528l-202 -45v-397q0 -162 -146 -162q-102 0 -178 70v24v510l-201 -45l-4 -395q0 -162 -147 -162h-189v-184h238q135 0 219 78q29 29 39 43q121 -121 276 -121q166 0 248 117 q115 -117 275 -117q119 0 194 61q84 -61 205 -61h109z" />
<glyph unicode="&#x634;" horiz-adv-x="2525" arabic-form="final" d="M2554 0v184h-62q-147 0 -147 160v522l-244 -55l39 -266v-201q0 -162 -145 -162q-100 0 -176 76v528l-203 -45v-397q0 -162 -146 -162q-102 0 -178 70v577l-205 -49v-602q0 -244 -116 -393q-115 -139 -273 -139q-190 0 -297.5 147.5t-107.5 405.5v389h-201v-398 q0 -315 137 -489q150 -193 443 -193t454 175q150 158 164 399q102 -82 234 -82q164 0 248 117q113 -117 274 -117q117 0 195 61q82 -61 204 -61h109zM1657 1194q0 53 -37 89t-88 36t-89 -36t-38 -87q0 -53 38 -89t89 -36q53 0 89 36t36 87zM1985 1194q0 53 -38 89t-89 36 q-49 0 -87 -37t-38 -86q0 -53 36.5 -89t88.5 -36q53 0 90 36t37 87zM1819 1511q0 53 -36 90t-89 37q-51 0 -87 -37.5t-36 -89t35.5 -87t87.5 -35.5q53 0 89 36.5t36 85.5z" />
<glyph unicode="&#x634;" horiz-adv-x="1669" arabic-form="initial" d="M1567 297v569l-242 -55l37 -266v-201q0 -162 -145 -162q-100 0 -177 76v528l-200 -45v-397q0 -162 -146 -162q-104 0 -182 72v22v510l-201 -45l-4 -395q0 -162 -147 -162h-189v-184h238q135 0 219 78q29 29 39 45q119 -123 278 -123q164 0 248 117q113 -117 277 -117 q135 0 216 81t81 216zM879 1194q0 53 -37 89t-88.5 36t-89 -36t-37.5 -87q0 -53 37.5 -89t89.5 -36q53 0 89 36t36 87zM1206 1194q0 53 -38 89t-89 36q-49 0 -87 -37t-38 -86q0 -53 37 -89t88 -36q53 0 90 36t37 87zM1040 1511q0 53 -35.5 90t-89.5 37q-51 0 -86.5 -37.5 t-35.5 -89t35.5 -87t86.5 -35.5q53 0 89 36.5t36 85.5z" />
<glyph unicode="&#x634;" horiz-adv-x="1746" arabic-form="medial" d="M1774 0v184h-62q-147 0 -147 160v522l-244 -55l39 -266v-201q0 -162 -146 -162q-100 0 -176 76v528l-202 -45v-397q0 -162 -146 -162q-102 0 -178 70v24v510l-201 -45l-4 -395q0 -162 -147 -162h-189v-184h238q135 0 219 78q29 29 39 43q121 -121 276 -121q166 0 248 117 q115 -117 275 -117q119 0 194 61q84 -61 205 -61h109zM877 1194q0 53 -37 89t-88.5 36t-89 -36t-37.5 -87q0 -53 37.5 -89t89.5 -36q53 0 89 36t36 87zM1204 1194q0 53 -38 89t-89 36q-49 0 -87 -37t-38 -86q0 -53 37 -89t88 -36q53 0 90 36t37 87zM1038 1511q0 53 -35.5 90 t-89.5 37q-51 0 -86.5 -37.5t-35.5 -89t35.5 -87t86.5 -35.5q53 0 89 36.5t36 85.5z" />
<glyph unicode="&#x635;" horiz-adv-x="2770" arabic-form="final" d="M2791 0v184h-184v299q0 174 -139 273q-137 100 -357 100q-401 0 -741 -537l-78 -92v602l-205 -49v-602q0 -244 -116 -393q-115 -139 -273 -139q-190 0 -297.5 147.5t-107.5 405.5v389h-201v-398q0 -315 137 -489q150 -193 443 -193t454 175q123 125 154 317h1511z M2402 451v-267h-925q45 125 204 291q199 209 385 209q336 0 336 -233z" />
<glyph unicode="&#x635;" horiz-adv-x="1830" arabic-form="initial" d="M1714 0v483q0 174 -139 273q-137 100 -356 100q-381 0 -707 -483v413l-201 -45l-4 -395q0 -162 -147 -162h-189v-184h238h14h1491zM1509 451v-267h-925q45 125 204 291q199 209 386 209q335 0 335 -233z" />
<glyph unicode="&#x635;" horiz-adv-x="1892" arabic-form="medial" d="M1921 0v184h-184v299q0 174 -140 273q-137 100 -356 100q-395 0 -729 -518v448l-201 -45l-4 -395q0 -162 -147 -162h-189v-184h238h20h1692zM1532 451v-267h-926q45 125 205 291q201 209 385 209q336 0 336 -233z" />
<glyph unicode="&#x636;" horiz-adv-x="2770" arabic-form="final" d="M2791 0v184h-184v299q0 174 -139 273q-137 100 -357 100q-401 0 -741 -537l-78 -92v602l-205 -49v-602q0 -244 -116 -393q-115 -139 -273 -139q-190 0 -297.5 147.5t-107.5 405.5v389h-201v-398q0 -315 137 -489q150 -193 443 -193t454 175q123 125 154 317h1511z M2402 451v-267h-925q45 125 204 291q199 209 385 209q336 0 336 -233zM2193 1194q0 53 -36.5 89t-90.5 36q-49 0 -85.5 -36t-36.5 -89t35.5 -88t86.5 -35q53 0 90 36t37 87z" />
<glyph unicode="&#x636;" horiz-adv-x="1830" arabic-form="initial" d="M1714 0v483q0 174 -139 273q-137 100 -356 100q-381 0 -707 -483v413l-201 -45l-4 -395q0 -162 -147 -162h-189v-184h238h14h1491zM1509 451v-267h-925q45 125 204 291q199 209 386 209q335 0 335 -233zM1300 1194q0 53 -36.5 89t-89.5 36q-49 0 -86 -36t-37 -89 t35.5 -88t87.5 -35q53 0 89.5 36t36.5 87z" />
<glyph unicode="&#x636;" horiz-adv-x="1892" arabic-form="medial" d="M1921 0v184h-184v299q0 174 -140 273q-137 100 -356 100q-395 0 -729 -518v448l-201 -45l-4 -395q0 -162 -147 -162h-189v-184h238h20h1692zM1532 451v-267h-926q45 125 205 291q201 209 385 209q336 0 336 -233zM1323 1194q0 53 -37 89t-90 36q-49 0 -86 -36t-37 -89 t36 -88t87 -35q53 0 90 36t37 87z" />
<glyph unicode="&#x637;" horiz-adv-x="1900" arabic-form="final" d="M1929 0v184h-192v314q0 172 -140 274q-137 100 -354 100q-197 0 -407 -174q-172 -139 -263 -305v594l23 270l-258 -22l31 -252q0 -766 4 -799l-236 29l-24 -213h1816zM1530 184h-955q45 131 230 305q219 209 395 209q330 0 330 -233v-281z" />
<glyph unicode="&#x637;" horiz-adv-x="1724" arabic-form="initial" d="M1640 0v498q0 172 -139 274q-137 100 -352 100q-201 0 -408 -174q-174 -137 -264 -305v594l23 270l-256 -22l30 -252v-799h-303v-184h1669zM1434 184h-953q45 131 230 305q219 209 393 209q330 0 330 -233v-281z" />
<glyph unicode="&#x637;" horiz-adv-x="1806" arabic-form="medial" d="M1833 0v184h-193v314q0 172 -139 274q-137 100 -352 100q-201 0 -408 -174q-174 -137 -264 -305v594l23 270l-256 -22l32 -252v-799h-305v-184h1862zM1434 184h-953q43 127 230 305q219 209 393 209q330 0 330 -233v-281z" />
<glyph unicode="&#x638;" horiz-adv-x="1900" arabic-form="final" d="M1346 1194q0 53 -38 89t-89.5 36t-88 -36t-36.5 -89t36.5 -88t88.5 -35q53 0 90 36t37 87zM1929 0v184h-192v314q0 172 -140 274q-137 100 -354 100q-197 0 -407 -174q-172 -139 -263 -305v594l23 270l-258 -22l31 -252q0 -766 4 -799l-236 29l-24 -213h1816zM1530 184 h-955q45 131 230 305q219 209 395 209q330 0 330 -233v-281z" />
<glyph unicode="&#x638;" horiz-adv-x="1724" arabic-form="initial" d="M1249 1194q0 53 -36.5 89t-88 36t-89.5 -36t-38 -89t38 -88t89 -35q53 0 89 36t36 87zM1640 0v498q0 172 -139 274q-137 100 -352 100q-201 0 -408 -174q-174 -137 -264 -305v594l23 270l-256 -22l30 -252v-799h-303v-184h1669zM1434 184h-953q45 131 230 305 q219 209 393 209q330 0 330 -233v-281z" />
<glyph unicode="&#x638;" horiz-adv-x="1806" arabic-form="medial" d="M1249 1194q0 53 -35.5 89t-89.5 36q-51 0 -87 -36t-36 -89t36 -88t87 -35q53 0 89 36t36 87zM1833 0v184h-193v314q0 172 -139 274q-137 100 -352 100q-201 0 -408 -174q-174 -137 -264 -305v594l23 270l-256 -22l32 -252v-799h-305v-184h1862zM1434 184h-953 q43 127 230 305q219 209 393 209q330 0 330 -233v-281z" />
<glyph unicode="&#x639;" horiz-adv-x="1196" arabic-form="final" d="M1257 0v184h-184q-90 0 -184 88l-156 150l418 289q0 139 -143 250q-139 113 -342 112.5t-346.5 -111t-143.5 -249.5l270 -260q-154 -100 -176 -121q-172 -117 -157 -301q14 -227 198 -353q141 -98 363 -122l59 92q-184 23 -297 116q-129 111 -123 275q6 96 95 158 l176 122q88 -88 110 -112q211 -207 373 -207h190zM918 772l-320 -215l-195 188q12 66 86 104t175 38q195 0 254 -115z" />
<glyph unicode="&#x639;" horiz-adv-x="1165" arabic-form="initial" d="M1081 0l-26 213l-267 -29h-106q-88 0 -152 60q-70 68 -69 184q0 287 250 287q123 0 237 -78l78 92q-193 145 -360 145q-180 4 -293 -118q-115 -121 -115 -312q0 -156 80 -260h-367v-184h1110z" />
<glyph unicode="&#x639;" horiz-adv-x="1316" arabic-form="medial" d="M1407 0v184h-434q-47 0 -82 9l344 319q0 147 -150 260q-158 119 -374 119q-219 0 -375 -117q-154 -117 -154 -262q281 -268 340 -319q-35 -8 -78 -9h-475v-184h506q2 45 90 45q121 -4 142 8q123 -53 213 -53h487zM1014 549l-303 -289l-305 289q8 55 83 108q88 55 222 56 q135 0 223 -56q70 -45 80 -108z" />
<glyph unicode="&#x63a;" horiz-adv-x="1196" arabic-form="final" d="M797 1309q0 53 -37 89t-88 36t-89 -36t-38 -87q0 -55 35.5 -90t91.5 -35q53 0 89 36t36 87zM1257 0v184h-184q-90 0 -184 88l-156 150l418 289q0 139 -143 250q-139 113 -342 112.5t-346.5 -111t-143.5 -249.5l270 -260q-154 -100 -176 -121q-172 -117 -157 -301 q14 -227 198 -353q141 -98 363 -122l59 92q-184 23 -297 116q-129 111 -123 275q6 96 95 158l176 122q88 -88 110 -112q211 -207 373 -207h190zM918 772l-320 -215l-195 188q12 66 86 104t175 38q195 0 254 -115z" />
<glyph unicode="&#x63a;" horiz-adv-x="1165" arabic-form="initial" d="M760 1194q0 53 -37 89t-88 36t-89 -36t-38 -89t38 -88t89 -35q53 0 89 36t36 87zM1081 0l-26 213l-267 -29h-106q-88 0 -152 60q-70 68 -69 184q0 287 250 287q123 0 237 -78l78 92q-193 145 -360 145q-180 4 -293 -118q-115 -121 -115 -312q0 -156 80 -260h-367v-184 h1110z" />
<glyph unicode="&#x63a;" horiz-adv-x="1316" arabic-form="medial" d="M838 1194q0 53 -37 89t-88 36q-49 0 -87 -37t-38 -86q0 -53 37 -89t88 -36q53 0 89 36t36 87zM1407 0v184h-434q-47 0 -82 9l344 319q0 147 -150 260q-158 119 -374 119q-219 0 -375 -117q-154 -117 -154 -262q281 -268 340 -319q-35 -8 -78 -9h-475v-184h506q2 45 90 45 q121 -4 142 8q123 -53 213 -53h487zM1014 549l-303 -289l-305 289q8 55 83 108q88 55 222 56q135 0 223 -56q70 -45 80 -108z" />
<glyph unicode="&#x641;" horiz-adv-x="1974" arabic-form="final" d="M1499 1194q0 53 -38 89t-89 36q-49 0 -87 -37t-38 -86q0 -53 37 -89t88 -36q53 0 90 36t37 87zM2001 0v184h-285q104 104 105 267q0 180 -115 294q-125 121 -330 121q-211 0 -329 -118q-119 -117 -119 -297q0 -162 104 -267h-510q-244 0 -243 299q0 113 96 250h-182 q-80 -139 -80 -291q0 -199 104 -321q104 -121 281 -121h704q23 0 174 25q164 -25 172 -25h453zM1602 461q0 -121 -54 -203q-61 -98 -170 -98q-231 0 -231 301q0 129 72 205q63 61 157 61q90 0 154 -61q72 -76 72 -205z" />
<glyph unicode="&#x641;" horiz-adv-x="950" arabic-form="initial" d="M635 1194q0 53 -37 89t-86 36q-53 0 -90 -36t-37 -87q0 -55 36 -90t91 -35q49 0 86 36t37 87zM866 614q0 141 -86 228q-94 94 -266 94q-123 0 -217 -66q-127 -90 -127 -264q0 -324 344 -323q86 0 135 24q-23 -123 -225 -123h-453v-184h437q238 0 348 123t110 395v96z M666 610q0 -119 -2 -166q-66 -31 -158 -30q-133 0 -133 178q0 219 147 219q146 0 146 -201z" />
<glyph unicode="&#x641;" horiz-adv-x="1271" arabic-form="medial" d="M786 1194q0 53 -36.5 89t-85.5 36q-53 0 -90 -36t-37 -87q0 -55 35.5 -90t91.5 -35q49 0 85.5 36t36.5 87zM1292 0v184h-288q106 104 106 267q0 180 -119 297q-119 119 -327.5 118.5t-327.5 -118.5q-119 -117 -119 -297q0 -162 105 -267h-347v-184h514q23 0 175 25 q164 -25 172 -25h456zM891 461q0 -121 -53 -203q-61 -98 -172 -98q-229 0 -230 301q0 129 72 205q61 61 156 61q92 0 153 -61q74 -74 74 -205z" />
<glyph unicode="&#x642;" horiz-adv-x="1490" arabic-form="final" d="M1255 1194q0 53 -36.5 89t-85.5 36q-53 0 -90 -36t-37 -87q0 -55 35.5 -90t91.5 -35q49 0 85.5 36t36.5 87zM928 1194q0 53 -36 89t-87 36q-53 0 -89 -36t-36 -87q0 -55 36 -90t89 -35q51 0 87 36t36 87zM1284 0h234v184h-234v682h-301q-215 0 -348 -127 q-131 -125 -131 -346q0 -182 103.5 -287.5t266.5 -105.5h203q-20 -319 -317 -319q-203 0 -318 120q-131 133 -131 406v182h-198v-188q0 -311 163.5 -481.5t466.5 -170.5q248 0 392 127q135 119 149 324zM1077 727v-543h-172q-193 0 -192 244q0 299 258 299h106z" />
<glyph unicode="&#x642;" horiz-adv-x="950" arabic-form="initial" d="M799 1194q0 53 -37 89t-88 36t-88 -36t-37 -87q0 -53 37 -89t88 -36q53 0 89 36t36 87zM473 1194q0 53 -38 89t-89 36q-49 0 -87 -37t-38 -86q0 -53 37 -89t88 -36q53 0 90 36t37 87zM866 614q0 141 -86 228q-94 94 -266 94q-123 0 -217 -66q-127 -90 -127 -264 q0 -324 344 -323q86 0 135 24q-23 -123 -225 -123h-453v-184h437q238 0 348 123t110 395v96zM666 610q0 -119 -2 -166q-66 -31 -158 -30q-133 0 -133 178q0 219 147 219q146 0 146 -201z" />
<glyph unicode="&#x642;" horiz-adv-x="1271" arabic-form="medial" d="M952 1194q0 53 -36.5 89t-88 36t-88.5 -36t-37 -89t37 -88t88 -35q53 0 89 36t36 87zM627 1194q0 53 -38 89t-89 36t-88 -36t-37 -89t37 -88t88 -35q53 0 90 36t37 87zM1292 0v184h-288q106 104 106 267q0 180 -119 297q-119 119 -327.5 118.5t-327.5 -118.5 q-119 -117 -119 -297q0 -162 105 -267h-351v-184h518q23 0 175 25q164 -25 172 -25h456zM891 461q0 -121 -53 -203q-61 -98 -172 -98q-229 0 -230 301q0 129 72 205q61 61 156 61q92 0 153 -61q74 -74 74 -205z" />
<glyph unicode="&#x643;" horiz-adv-x="1951" arabic-form="final" d="M1286 659l-108 138l-119 -15h-158q0 156 135 160q59 2 115 -45q25 57 39 100q-96 68 -195 68q-258 0 -258 -283h-116v-123h665zM1978 0v184h-108q-143 0 -152 144v991l-239 -55l39 -263v-655q0 -162 -152 -162h-844q-244 0 -243 299q0 113 96 250h-182q-80 -139 -80 -291 q0 -199 104 -321q104 -121 281 -121h919q121 0 199 59q84 -59 205 -59h157z" />
<glyph unicode="&#x643;" horiz-adv-x="1429" arabic-form="initial" d="M1346 0v518q0 178 -132.5 277.5t-371.5 99.5h-381l182 184l291 240h-291q-205 -250 -567 -600h721q346 0 346 -236v-299h-1172v-184h1375z" />
<glyph unicode="&#x643;" horiz-adv-x="1509" arabic-form="medial" d="M1538 0v184h-192v334q0 178 -132.5 277.5t-371.5 99.5h-381l182 184l291 240h-291q-205 -250 -567 -600h721q346 0 346 -236v-299h-1172v-184h1567z" />
<glyph unicode="&#x644;" horiz-adv-x="1560" arabic-form="final" d="M1587 0v184h-127q-82 0 -115.5 54.5t-33.5 197.5v883l-244 -57l43 -275v-797q0 -231 -117 -370q-115 -139 -274 -139q-190 0 -298 140t-108 388v371h-200v-379q0 -301 135 -469q152 -182 442 -183q248 0 407.5 124t202.5 341q45 -14 111 -14h176z" />
<glyph unicode="&#x644;" horiz-adv-x="743" arabic-form="initial" d="M659 305v1026l-239 -57l35 -270v-652q0 -168 -150 -168h-334v-184h383q141 0 223 81t82 224z" />
<glyph unicode="&#x644;" horiz-adv-x="727" arabic-form="medial" d="M756 0v184h-88q-147 0 -148 168v967l-244 -55l39 -275v-637q0 -168 -147 -168h-197v-184h250q119 0 195 63q78 -63 202 -63h138z" />
<glyph unicode="&#x645;" horiz-adv-x="1652" arabic-form="final" d="M1710 0v184h-141q-150 0 -150 189v272l21 213q-147 47 -293 47q-236 0 -371 -137t-135 -365q0 -115 61 -219h-286q-139 0 -221 -75.5t-82 -206.5v-185l202 -137v266q0 154 150 154h498q209 0 323 82q80 -82 236 -82h188zM1225 631q14 -94 14 -172q0 -274 -219 -275 q-176 0 -176 258q0 322 258 322q61 0 106 -14z" />
<glyph unicode="&#x645;" horiz-adv-x="1103" arabic-form="initial" d="M1020 858q-147 47 -293 47q-236 0 -371 -137t-135 -365q0 -115 62 -219h-312v-184h572q459 0 458 360v285zM805 631q14 -94 14 -172q0 -274 -219 -275q-176 0 -176 258q0 322 258 322q63 0 106 -14z" />
<glyph unicode="&#x645;" horiz-adv-x="1277" arabic-form="medial" d="M1305 0v184h-101q-150 0 -149 162v184l24 213q-152 47 -297 48q-233 0 -368 -125t-144 -347q-4 -135 -141 -135h-158v-184h213q86 0 154 37q90 -152 262 -152q211 0 363 178q78 -63 194 -63h148zM852 145q-90 -92 -199 -92q-76 0 -124 74t-48 201q0 322 256 321 q55 0 99 -14l16 -115v-375z" />
<glyph unicode="&#x646;" horiz-adv-x="1579" arabic-form="final" d="M829 559q0 53 -35.5 89t-88.5 36q-51 0 -87 -36t-36 -87q0 -55 35.5 -90t87.5 -35q53 0 88.5 36t35.5 87zM1649 0v184h-189q-150 0 -149 205v475l-240 -57l39 -270v-355q0 -227 -121 -372q-111 -131 -270 -132q-190 0 -298 139.5t-108 381.5v366h-200v-372 q0 -297 135 -463q150 -180 442 -181q250 0 411 124t199 341q49 -14 111 -14h238z" />
<glyph unicode="&#x646;" horiz-adv-x="671" arabic-form="initial" d="M475 1194q0 53 -36 89t-87 36q-53 0 -89 -36t-36 -89t36 -88t89.5 -35t88 36t34.5 87zM588 297v567l-238 -53l35 -262v-203q0 -162 -149 -162h-265v-184h314q139 0 221 80t82 217z" />
<glyph unicode="&#x646;" horiz-adv-x="737" arabic-form="medial" d="M500 1194q0 53 -37 89t-88 36t-89 -36t-38 -87q0 -53 38 -89t89 -36q53 0 89 36t36 87zM766 0v184h-102q-150 0 -150 162v520l-244 -55l41 -266v-199q0 -162 -149 -162h-191v-184h244q117 0 197 61q76 -61 200 -61h154z" />
<glyph unicode="&#x647;" horiz-adv-x="1140" arabic-form="final" d="M989 0h180v184h-129q-150 0 -149 166v686q-113 -20 -246 -55l12 -92h-65q-215 0 -348 -123q-131 -119 -131 -320q0 -184 94 -292.5t258 -108.5q160 4 264 59q98 -104 260 -104zM690 756v-516q-86 -25 -178 -25q-186 0 -190 268q0 115 75 191q74 74 183 78q32 0 110 4z " />
<glyph unicode="&#x647;" horiz-adv-x="1277" arabic-form="initial" d="M-29 0h1223v588q0 180 -158 270q-127 78 -342 78t-383 -66l-32 -151q180 80 358 80q160 0 256 -65.5t96 -180.5v-369h-115l5 240q0 121 -76 190q-70 61 -185 62q-150 0 -268 -109q-115 -109 -114 -256q0 -72 30 -127h-295v-184zM690 455v-271h-133q-143 0 -143 115 t67 199q57 76 125 75q84 1 84 -118z" />
<glyph unicode="&#x647;" horiz-adv-x="1277" arabic-form="medial" d="M1194 184v404q0 180 -158 270q-127 78 -342 78t-383 -66l-32 -151q180 80 358 80q160 0 256 -65.5t96 -180.5v-369h-115l5 240q0 121 -76 190q-70 61 -185 62q-150 0 -268 -109q-115 -109 -114 -256q0 -72 30 -127h-295v-184h52h339h934v184h-102zM690 455v-271h-133 q-143 0 -143 115t67 199q57 76 125 75q84 1 84 -118z" />
<glyph unicode="&#x648;" horiz-adv-x="1101" arabic-form="final" d="M1128 0v184h-237v707h-299q-215 0 -348 -139q-131 -137 -131 -361q0 -182 114 -291q100 -100 269 -100h194q-16 -272 -278 -373l43 -80q379 98 432 453h241zM684 184h-172q-190 0 -190 244q0 160 68.5 252t189.5 92h104v-588z" />
<glyph unicode="&#x649;" horiz-adv-x="2009" arabic-form="final" d="M2030 0v184h-166q-147 0 -148 168l2 514h-385q-215 0 -348 -139t-133 -360q0 -184 106 -289q96 -98 259 -103q-2 -90 -66 -174q-72 -102 -188 -123h-244q-195 0 -300.5 133.5t-105.5 374.5v367h-200v-371q0 -295 135 -458q152 -176 442 -177h320q188 20 303 154 q113 127 112 307v135h-170q-193 2 -192 256q0 328 256 328h192v-422q0 -141 82 -223t222 -82h215z" />
<glyph unicode="&#x64a;" horiz-adv-x="2009" arabic-form="final" d="M2030 0v184h-166q-147 0 -148 168l2 514h-385q-215 0 -348 -139t-133 -360q0 -184 106 -289q96 -98 259 -103q-2 -90 -66 -174q-72 -102 -188 -123h-244q-195 0 -300.5 133.5t-105.5 374.5v367h-200v-371q0 -295 135 -458q152 -176 442 -177h320q188 20 303 154 q113 127 112 307v135h-170q-193 2 -192 256q0 328 256 328h192v-422q0 -141 82 -223t222 -82h215zM1098 -766q0 53 -36 89t-87 36q-53 0 -89 -36t-36 -89t36 -88t89 -35t88 36t35 87zM772 -766q0 53 -37 89t-86 36q-53 0 -90 -36t-37 -89t37 -88t90 -35t88 36t35 87z" />
<glyph unicode="&#x64a;" horiz-adv-x="694" arabic-form="initial" d="M588 297v567l-238 -53l35 -262v-203q0 -162 -149 -162h-265v-184h314q139 0 221 80t82 217zM530 -330q0 53 -36.5 89t-88 36t-89 -35.5t-37.5 -87.5q0 -53 37.5 -89t89.5 -36q53 0 88.5 37t35.5 86zM205 -330q0 53 -38 89t-89 36q-49 0 -87 -37t-38 -86q0 -53 37 -89 t88 -36q53 0 90 37t37 86z" />
<glyph unicode="&#x64a;" horiz-adv-x="737" arabic-form="medial" d="M766 0v184h-102q-150 0 -150 162v528l-244 -53l41 -264v-211q0 -162 -149 -162h-191v-184h244q117 0 197 61q76 -61 200 -61h154zM539 -330q0 53 -37 89t-88.5 36t-87 -35.5t-35.5 -87.5q0 -55 35.5 -90t87.5 -35q53 0 89 37t36 86zM213 -330q0 53 -38 89t-89 36 q-49 0 -87 -37t-38 -86q0 -53 37 -89t88 -36q53 0 90 37t37 86z" />
<glyph unicode="&#xd;" horiz-adv-x="681" />
<glyph unicode=" "  horiz-adv-x="329" />
<glyph unicode="&#x09;" horiz-adv-x="329" />
<glyph unicode="&#xa0;" horiz-adv-x="329" />
<glyph unicode="!" horiz-adv-x="651" d="M328 971v348h-211v-348l65 -568h78zM338 112.5q0 49.5 -34 82t-83 32.5t-82 -32.5t-33 -81.5q0 -115 115 -115q49 0 83 32.5t34 82z" />
<glyph unicode="&#x22;" horiz-adv-x="708" d="M324 1319h-211l39 -330h127zM594 1319h-211l39 -330h127z" />
<glyph unicode="$" horiz-adv-x="1478" d="M936 367q0 152 -115 247q-76 66 -239 129v396q82 -8 137 -37l41 -201h160l-25 324q-174 57 -313 67v154h-148v-162q-156 -31 -245 -131t-89 -233q0 -143 107 -232q74 -63 227 -121v-420q-57 6 -129 37l-39 197h-160l23 -328q172 -59 305 -63v-160h148v168 q162 27 258 125.5t96 243.5zM434 803q-133 59 -133 164q0 113 133 153v-317zM733 328q0 -123 -151 -166v346q151 -65 151 -180z" />
<glyph unicode="'" horiz-adv-x="86" d="M324 1319h-211l39 -330h127z" />
<glyph unicode="(" horiz-adv-x="604" d="M569 -252q-113 129 -163 221q-53 96 -93 267q-31 123 -30 262q0 111 28 254q59 262 258 495l-73 76q-170 -131 -252 -248q-82 -119 -138 -315q-35 -127 -34.5 -262.5t34.5 -261.5q86 -322 390 -564z" />
<glyph unicode=")" horiz-adv-x="606" d="M530 497.5q0 143.5 -32 262.5q-53 193 -140 315q-84 121 -249 248l-72 -76q197 -229 256 -495q29 -143 29 -254q0 -139 -31 -262q-43 -174 -94 -267q-53 -96 -160 -221l72 -76q307 244 389 564q32 118 32 261.5z" />
<glyph unicode="*" horiz-adv-x="925" d="M848 262l-334 152l334 151l-62 107l-297 -213l37 362h-127l37 -362l-297 213l-61 -107l334 -151l-334 -152l61 -106l297 211l-37 -361h127l-37 361l297 -211z" />
<glyph unicode="+" horiz-adv-x="1011" d="M901 373v102h-344v352h-102v-352h-342v-102h342v-373h102v373h344z" />
<glyph unicode="-" horiz-adv-x="1011" d="M901 373v102h-788v-102h788z" />
<glyph unicode="." horiz-adv-x="495" d="M383 137q0 59 -39 98t-96 39q-55 0 -95 -40.5t-40 -96.5q0 -59 40 -98t95 -39q59 0 97 40t38 97z" />
<glyph unicode="/" horiz-adv-x="604" d="M618 1208l-151 49l-430 -1241l153 -45z" />
<glyph unicode="0" horiz-adv-x="538" d="M395 166v278l-252 -61v-283z" />
<glyph unicode="1" horiz-adv-x="546" d="M403 1331l-260 -59l37 -223v-1051l201 154v899z" />
<glyph unicode="2" horiz-adv-x="1142" d="M999 1319h-852l-4 -1319h207v1139h297l205 -31z" />
<glyph unicode="3" horiz-adv-x="1234" d="M1092 874v445l-228 -55l33 -215v-148q0 -88 -84 -88q-49 0 -94 45v461l-223 -55l32 -215v-148q0 -88 -84 -88q-41 0 -96 57v453l-205 -59v-1264h205v664q57 -33 133 -33q109 0 174 67q80 -68 195 -67q109 0 175.5 67t66.5 176z" />
<glyph unicode="4" horiz-adv-x="1185" d="M1042 0l-147 215l-205 -31h-168q-66 0 -110 45q-61 57 -62 168q0 106 68 162q45 37 88 37h344v184h-309q-51 0 -99 41q-61 59 -61 146q0 172 160 172h92l186 -31l154 211h-438q-160 0 -263 -94q-102 -92 -102 -258q0 -104 78 -187q76 -76 196 -86q-123 -6 -213 -98 q-88 -90 -88 -221q0 -168 101 -271q100 -104 254 -104h544z" />
<glyph unicode="5" horiz-adv-x="1087" d="M944 963q-147 47 -295 47q-233 0 -369.5 -136.5t-136.5 -365.5q0 -164 97 -279q109 -123 288 -123q393 0 394 359v287zM719 737q4 -70 8 -125t6 -77.5t2 -20.5q0 -244 -207 -244q-82 0 -132 74t-50 205q0 317 258 317q51 0 107 -10z" />
<glyph unicode="6" horiz-adv-x="1142" d="M999 0v1319h-856l150 -211l203 31h297l2 -1139h204z" />
<glyph unicode="7" horiz-adv-x="1443" d="M1300 1319h-278q-4 -14 -72 -291q-59 -254 -229 -797q-291 1010 -299 1088h-279l125 -229l340 -1090h228l340 1090z" />
<glyph unicode="8" horiz-adv-x="1443" d="M1300 0l-124 229l-338 1090h-230l-338 -1090l-127 -229h281l299 1090l238 -885l61 -205h278z" />
<glyph unicode="9" horiz-adv-x="970" d="M827 1319h-264q-188 0 -305 -121q-115 -121 -115 -315q0 -164 84 -262.5t224 -98.5q88 2 174 29v-551h202v1319zM625 719q-59 -20 -127 -21q-150 0 -150 224q0 121 54.5 188.5t146.5 67.5h76v-459z" />
<glyph unicode=":" horiz-adv-x="495" d="M383 598q0 59 -39 98t-96 39q-55 0 -95 -41t-40 -96q0 -59 40 -98t95 -39q59 0 97 40t38 97zM383 137q0 59 -39 98t-96 39q-55 0 -95 -40.5t-40 -96.5q0 -59 40 -98t95 -39q59 0 97 40t38 97z" />
<glyph unicode="&#x3c;" horiz-adv-x="1003" d="M834 -84l-480 477l480 479h-244l-479 -479l479 -477h244z" />
<glyph unicode="=" horiz-adv-x="1005" d="M895 549v102h-782v-102h782zM895 244v102h-782v-102h782z" />
<glyph unicode="&#x3e;" horiz-adv-x="1003" d="M109 -84l479 477l-479 479h243l479 -479l-479 -477h-243z" />
<glyph unicode="[" horiz-adv-x="487" d="M459 -344v68l-158 30l-22 187v1079l22 188l158 27v68h-346v-1647h346z" />
<glyph unicode="\" horiz-adv-x="702" d="M618 16l-428 1241l-153 -49l428 -1237z" />
<glyph unicode="]" horiz-adv-x="495" d="M383 -344v1647h-346v-68l160 -27l18 -188v-1079l-18 -187l-160 -30v-68h346z" />
<glyph unicode="_" horiz-adv-x="696" d="M725 -248v185h-754v-185h754z" />
<glyph unicode="{" horiz-adv-x="688" d="M575 -328v70l-61 10q-141 23 -141 217v324q0 139 -133 174l-70 20l74 17q129 33 129 170v327q0 195 141 218l61 8v67h-139q-231 0 -231 -305v-309q0 -119 -121 -141l-53 -11v-86l53 -12q121 -25 121 -141v-309q0 -154 71 -238q61 -70 160 -70h139z" />
<glyph unicode="|" horiz-adv-x="315" d="M90 -332h150v1598h-150v-1598z" />
<glyph unicode="}" horiz-adv-x="698" d="M588 442v86l-58 11q-117 23 -116 141v309q0 305 -232 305h-141v-67l63 -8q139 -23 140 -218v-327q0 -137 131 -170l71 -17l-69 -20q-133 -35 -133 -174v-324q0 -195 -140 -217l-63 -10v-70h141q96 0 160 70q72 84 72 238v309q0 117 116 141z" />
<glyph unicode="&#xab;" horiz-adv-x="888" d="M776 956h-158q-172 -231 -172 -479q0 -233 168 -475h162q-133 276 -133 473q0 192 133 481zM442 956h-159q-170 -231 -170 -479q0 -231 166 -475h163q-135 272 -135 473q0 196 135 481z" />
<glyph unicode="&#xad;" horiz-adv-x="1011" d="M901 373v102h-788v-102h788z" />
<glyph unicode="&#xbb;" horiz-adv-x="888" d="M776 477q0 248 -170 479h-160q135 -285 136 -481q0 -201 -136 -473h164q166 242 166 475zM442 477q0 248 -172 479h-157q135 -285 135 -481q0 -201 -135 -473h161q168 242 168 475z" />
<glyph unicode="&#xd7;" horiz-adv-x="847" d="M735 553l-69 70l-242 -240l-242 240l-69 -70l239 -240l-239 -241l71 -72l240 240l242 -240l69 72l-237 241z" />
<glyph unicode="&#xf7;" horiz-adv-x="1011" d="M621 713q0 49 -34 82.5t-81 33.5q-49 0 -83 -33.5t-34 -82.5q0 -47 35 -81t82 -34q49 0 82 33t33 82zM901 373v102h-788v-102h788zM621 117q0 49 -33 81.5t-82 32.5t-83 -34.5t-34 -79.5q0 -49 35 -83t82 -34q49 0 82 34t33 83z" />
<glyph unicode="&#x60c;" horiz-adv-x="526" d="M414 451l-33 71q-115 -31 -191 -119q-76 -90 -77 -190q-6 -96 38 -154.5t117 -58.5q129 0 129 129q0 125 -131 131q-8 16 -8 39q0 51 47.5 95.5t108.5 56.5z" />
<glyph unicode="&#x61b;" horiz-adv-x="497" d="M399 903l-32 72q-113 -31 -187 -118t-80 -191q-6 -96 37 -154.5t117 -58.5q129 0 129 129q0 125 -131 131q-8 18 -8 39q0 51 48 95t107 56zM385 137q0 59 -40 98t-97 39q-55 0 -95 -40.5t-40 -96.5q0 -59 40 -98t95 -39q59 0 98 40t39 97z" />
<glyph unicode="&#x61f;" horiz-adv-x="944" d="M834 1116q-170 188 -381 189q-141 0 -242 -95q-98 -96 -98 -229q0 -176 166 -324q135 -121 135 -327h153q0 260 -147 405q-121 121 -121 223q0 184 193 185q106 0 243 -123zM614 123q0 53 -35.5 89t-89.5 36q-51 0 -86.5 -36t-35.5 -87q0 -55 35.5 -90t86.5 -35 q53 0 89 37t36 86z" />
<glyph unicode="&#x621;" horiz-adv-x="1224" d="M1112 0l-160 207l-186 -23h-285q0 297 248 303q119 4 215 -73q25 78 39 143q-164 111 -307 111q-399 0 -400 -484h-192v-184h1028z" />
<glyph unicode="&#x627;" horiz-adv-x="483" d="M399 1323l-256 -20l31 -254v-1049h203v1051z" />
<glyph unicode="&#x628;" horiz-adv-x="1802" d="M1718 299v567l-239 -55l39 -262v-203q0 -162 -152 -162h-844q-244 0 -243 299q0 113 96 250h-182q-80 -139 -80 -291q0 -199 104 -321q104 -121 281 -121h919q139 0 220 80t81 219zM1085 -330q0 53 -37.5 89t-89.5 36q-49 0 -86.5 -37t-37.5 -86q0 -53 36.5 -89t87.5 -36 q53 0 90 37t37 86z" />
<glyph unicode="&#x629;" horiz-adv-x="1062" d="M844 1194q0 53 -37 89t-88 36t-89 -36t-38 -87q0 -53 38 -89t89 -36q53 0 89 36t36 87zM518 1194q0 53 -38 89t-89 36q-49 0 -87 -37t-38 -86q0 -53 37 -89t88 -36q53 0 90 36t37 87zM979 469q0 219 -111.5 342t-308.5 123q-213 0 -329.5 -133t-116.5 -346 q0 -205 114 -332q117 -123 310 -123q201 0 321 129q121 133 121 340zM760 469q0 -330 -217 -330q-213 0 -213 330q0 326 221 326q209 0 209 -326z" />
<glyph unicode="&#x62a;" horiz-adv-x="1802" d="M1210 858q0 53 -35.5 89t-87.5 36q-53 0 -88.5 -36t-35.5 -87q0 -55 35.5 -90t88.5 -35q51 0 87 36t36 87zM883 858q0 53 -36 89t-87 36q-53 0 -89 -36t-36 -87q0 -55 36 -90t89 -35q51 0 87 36t36 87zM1718 299v567l-239 -55l39 -262v-203q0 -162 -152 -162h-844 q-244 0 -243 299q0 113 96 250h-182q-80 -139 -80 -291q0 -199 104 -321q104 -121 281 -121h919q139 0 220 80t81 219z" />
<glyph unicode="&#x62b;" horiz-adv-x="1802" d="M1047 1174q0 53 -37 89.5t-90 36.5q-49 0 -86 -36.5t-37 -85.5q0 -55 35.5 -91t87.5 -36q53 0 90 37t37 86zM1210 858q0 53 -36.5 89t-88 36t-89.5 -37t-38 -88q0 -53 38 -88t89 -35q53 0 89 36t36 87zM883 858q0 53 -37 89t-88 36t-89 -37t-38 -88q0 -53 38 -88t89 -35 q53 0 89 36t36 87zM1718 299v567l-239 -55l39 -262v-203q0 -162 -152 -162h-844q-244 0 -243 299q0 113 96 250h-182q-80 -139 -80 -291q0 -199 104 -321q104 -121 281 -121h919q139 0 220 80t81 219z" />
<glyph unicode="&#x62c;" horiz-adv-x="1146" d="M1063 207v375q0 143 -127 235q-125 92 -301 92q-178 0 -299 -96q-129 -100 -129 -278l115 2q0 90 81.5 145t202.5 55q252 0 252 -184v-172h-745v-318q0 -449 561 -518l47 93q-193 25 -301 126q-104 96 -105 234l-2 209h750zM788 -47q0 55 -37.5 92t-86.5 37 q-51 0 -89 -38t-38 -89q0 -53 37.5 -89t89.5 -36q49 0 86.5 38t37.5 85z" />
<glyph unicode="&#x62d;" horiz-adv-x="1146" d="M1063 207v375q0 143 -127 235q-125 92 -301 92q-178 0 -299 -96q-129 -100 -129 -278l115 2q0 90 81.5 145t202.5 55q252 0 252 -184v-172h-745v-318q0 -449 561 -518l47 93q-193 25 -301 126q-104 96 -105 234l-2 209h750z" />
<glyph unicode="&#x62e;" horiz-adv-x="1146" d="M760 1194q0 53 -36 89t-87 36q-53 0 -89 -36t-36 -89t36 -88t89 -35q51 0 87 36t36 87zM1063 207v375q0 143 -127 235q-125 92 -301 92q-178 0 -299 -96q-129 -100 -129 -278l115 2q0 90 81.5 145t202.5 55q252 0 252 -184v-172h-745v-318q0 -449 561 -518l47 93 q-193 25 -301 126q-104 96 -105 234l-2 209h750z" />
<glyph unicode="&#x62f;" horiz-adv-x="1009" d="M895 408q-2 199 -117 327q-113 131 -301 131q-47 -8 -63 -8q10 -92 10 -115q31 14 63 15q88 0 144 -78q59 -90 59 -238v-215l-6 -43h-518l-53 -184h813l-31 186v222z" />
<glyph unicode="&#x630;" horiz-adv-x="1009" d="M618 1194q0 53 -36.5 89t-85.5 36q-53 0 -90 -36t-37 -89t36.5 -88t90 -35t88 36t34.5 87zM895 408q-2 199 -117 327q-113 131 -301 131q-47 -8 -63 -8q10 -92 10 -115q31 14 63 15q88 0 144 -78q59 -90 59 -238v-215l-6 -43h-518l-53 -184h813l-31 186v222z" />
<glyph unicode="&#x631;" horiz-adv-x="544" d="M461 86v780l-244 -55l41 -274l2 -514q0 -305 -283 -396l43 -80q441 123 441 539z" />
<glyph unicode="&#x632;" horiz-adv-x="544" d="M444 1194q0 53 -36.5 89t-88 36t-87 -36t-35.5 -89t35.5 -88t86.5 -35q53 0 89 36t36 87zM461 86v780l-244 -55l41 -274l2 -514q0 -305 -283 -396l43 -80q441 123 441 539z" />
<glyph unicode="&#x633;" horiz-adv-x="2437" d="M2343 297v569l-242 -55l37 -266v-201q0 -162 -145 -162q-100 0 -176 76v528l-201 -45v-397q0 -162 -146 -162q-104 0 -178 68v579l-205 -49v-602q0 -244 -116 -393q-115 -139 -273 -139q-190 0 -297.5 147.5t-107.5 405.5v389h-201v-398q0 -315 137 -489 q150 -193 443 -193t454 175q150 156 164 397q102 -80 232 -80q166 0 247 117q115 -117 277 -117q135 0 216 81t81 216z" />
<glyph unicode="&#x634;" horiz-adv-x="2437" d="M2343 297v569l-242 -55l37 -266v-201q0 -162 -145 -162q-100 0 -176 76v528l-201 -45v-397q0 -162 -146 -162q-104 0 -178 68v579l-205 -49v-602q0 -244 -116 -393q-115 -139 -273 -139q-190 0 -297.5 147.5t-107.5 405.5v389h-201v-398q0 -315 137 -489 q150 -193 443 -193t454 175q150 156 164 397q102 -80 232 -80q166 0 247 117q115 -117 277 -117q135 0 216 81t81 216zM1655 1194q0 53 -37 89t-88 36t-89 -36t-38 -87q0 -53 38 -89t89 -36q53 0 89 36t36 87zM1982 1194q0 53 -37.5 89t-89.5 36q-49 0 -86.5 -37t-37.5 -86 q0 -53 36.5 -89t87.5 -36q53 0 90 36t37 87zM1817 1511q0 53 -36 90t-89 37q-51 0 -87 -37.5t-36 -89t35.5 -87t87.5 -35.5q53 0 89 36.5t36 85.5z" />
<glyph unicode="&#x635;" horiz-adv-x="2674" d="M2583 0v483q0 174 -140 273q-137 100 -356 100q-401 0 -741 -537l-54 -67v577l-205 -49v-602q0 -244 -116 -393q-115 -139 -273 -139q-190 0 -297.5 147.5t-107.5 405.5v389h-201v-398q0 -315 137 -489q150 -193 443 -193t454 175q123 125 154 317h1303zM2378 451v-267 h-926q45 125 205 291q199 209 385 209q336 0 336 -233z" />
<glyph unicode="&#x636;" horiz-adv-x="2674" d="M2583 0v483q0 174 -140 273q-137 100 -356 100q-401 0 -741 -537l-54 -67v577l-205 -49v-602q0 -244 -116 -393q-115 -139 -273 -139q-190 0 -297.5 147.5t-107.5 405.5v389h-201v-398q0 -315 137 -489q150 -193 443 -193t454 175q123 125 154 317h1303zM2378 451v-267 h-926q45 125 205 291q199 209 385 209q336 0 336 -233zM2169 1194q0 53 -37 89t-90 36q-49 0 -86 -36t-37 -89t36 -88t87 -35q53 0 90 36t37 87z" />
<glyph unicode="&#x637;" horiz-adv-x="1820" d="M1737 0v498q0 172 -140 274q-137 100 -354 100q-197 0 -407 -174q-172 -139 -263 -305v594l23 270l-258 -22l31 -252q0 -766 4 -799l-236 29l-24 -213h1624zM1530 184h-955q45 131 230 305q219 209 395 209q330 0 330 -233v-281z" />
<glyph unicode="&#x638;" horiz-adv-x="1820" d="M1346 1194q0 53 -38 89t-89.5 36t-88 -36t-36.5 -89t36.5 -88t88.5 -35q53 0 90 36t37 87zM1737 0v498q0 172 -140 274q-137 100 -354 100q-197 0 -407 -174q-172 -139 -263 -305v594l23 270l-258 -22l31 -252q0 -766 4 -799l-236 29l-24 -213h1624zM1530 184h-955 q45 131 230 305q219 209 395 209q330 0 330 -233v-281z" />
<glyph unicode="&#x639;" horiz-adv-x="1243" d="M1159 244l-26 200l-267 -30h-305q0 154 68.5 250t181.5 96q123 0 238 -96l77 100q-195 145 -362 145q-174 0 -291 -141q-115 -139 -115 -344v-27q-260 -92 -245 -377q12 -231 198 -356q139 -96 363 -119l55 86q-186 23 -293 117q-123 104 -123 272q0 31 6 62 q18 162 232 162h608z" />
<glyph unicode="&#x63a;" horiz-adv-x="1243" d="M897 1194q0 53 -36 89t-87 36q-53 0 -89 -36t-36 -87q0 -55 36 -90t89 -35q51 0 87 36t36 87zM1159 244l-26 200l-267 -30h-305q0 154 68.5 250t181.5 96q123 0 238 -96l77 100q-195 145 -362 145q-174 0 -291 -141q-115 -139 -115 -344v-27q-260 -92 -245 -377 q12 -231 198 -356q139 -96 363 -119l55 86q-186 23 -293 117q-123 104 -123 272q0 31 6 62q18 162 232 162h608z" />
<glyph unicode="&#x640;" horiz-adv-x="454" d="M483 0v184h-512v-184h512z" />
<glyph unicode="&#x641;" horiz-adv-x="1806" d="M1499 1194q0 53 -37 89t-90 36q-49 0 -86 -36t-37 -87q0 -53 36 -89t87 -36q53 0 90 36t37 87zM1722 614q0 141 -86 228q-94 94 -266 94q-125 0 -219 -66q-125 -88 -125 -264q0 -324 344 -323q88 0 133 24q-18 -123 -223 -123h-758q-244 0 -243 299q0 113 96 250h-182 q-80 -139 -80 -291q0 -199 104 -321q104 -121 281 -121h766q238 0 348 123t110 395q2 33 0 96zM1522 610q0 -72 -4 -166q-61 -31 -154 -30q-137 0 -137 178q0 219 149 219q146 0 146 -201z" />
<glyph unicode="&#x642;" horiz-adv-x="1363" d="M1227 1194q0 53 -37 89t-88 36t-89 -36t-38 -87q0 -53 38 -89t89 -36q53 0 89 36t36 87zM901 1194q0 53 -38 89t-89 36q-49 0 -87 -37t-38 -86q0 -53 37 -89t88 -36q53 0 90 36t37 87zM1280 8v879h-301q-217 0 -348 -142q-133 -143 -133 -364q0 -195 95 -307.5 t257 -112.5q102 0 227 29q-12 -305 -317 -305q-449 0 -449 522v115h-198v-121q0 -313 162.5 -482.5t467.5 -169.5q537 -2 537 459zM1071 166q-92 -29 -170 -29q-190 0 -190 277q0 332 254 331h106v-579z" />
<glyph unicode="&#x643;" horiz-adv-x="1802" d="M1286 659l-108 138l-119 -15h-158q0 156 135 160q59 2 115 -45q25 57 39 100q-96 68 -195 68q-258 0 -258 -283h-116v-123h665zM1718 299v1020l-239 -55l39 -263v-655q0 -162 -152 -162h-844q-244 0 -243 299q0 113 96 250h-182q-80 -139 -80 -291q0 -199 104 -321 q104 -121 281 -121h919q139 0 220 80t81 219z" />
<glyph unicode="&#x644;" horiz-adv-x="1394" d="M1311 1319l-244 -57l43 -275v-381v-416q0 -231 -117 -370q-115 -139 -274 -139q-190 0 -298 140t-108 388v371h-200v-379q0 -301 135 -469q152 -182 442 -183q293 0 455 166q166 162 166 439v1165z" />
<glyph unicode="&#x645;" horiz-adv-x="1523" d="M1440 858q-147 47 -293 47q-236 0 -371 -137t-135 -365q0 -115 61 -219h-286q-139 0 -221 -75.5t-82 -206.5v-185l202 -137v266q0 154 150 154h498q457 0 456 360v285zM1225 631q14 -94 14 -172q0 -274 -219 -275q-176 0 -176 258q0 322 258 322q61 0 106 -14z" />
<glyph unicode="&#x646;" horiz-adv-x="1394" d="M829 559q0 53 -35.5 89t-88.5 36q-51 0 -87 -36t-36 -87q0 -55 35.5 -90t87.5 -35q53 0 88.5 36t35.5 87zM1311 864l-240 -57l37 -270q2 -6 2 -355q0 -227 -121 -372q-111 -131 -270 -132q-190 0 -298 139.5t-108 381.5v366h-200v-372q0 -297 135 -463q150 -180 442 -181 q291 0 455 164q166 164 166 432v719z" />
<glyph unicode="&#x647;" horiz-adv-x="1062" d="M979 469q0 219 -111.5 342t-308.5 123q-213 0 -329.5 -133t-116.5 -346q0 -205 114 -332q117 -123 310 -123q201 0 321 129q121 133 121 340zM760 469q0 -330 -217 -330q-213 0 -213 330q0 326 221 326q209 0 209 -326z" />
<glyph unicode="&#x648;" horiz-adv-x="966" d="M883 84v782h-318q-209 0 -336 -147q-117 -137 -116 -352q0 -170 94 -285q98 -127 254 -127q109 0 219 35q-27 -291 -281 -359l43 -86q441 115 441 539zM682 129q-88 -35 -178 -35q-190 0 -191 305q0 160 69 252t191 92h109v-614z" />
<glyph unicode="&#x649;" horiz-adv-x="1433" d="M1350 8v135h-379q-190 0 -191 256q0 328 254 328h183l30 137h-196q-215 0 -348.5 -139t-133.5 -363q0 -182 102.5 -286.5t270.5 -104.5h197q2 -92 -62 -180q-74 -106 -190 -123h-244q-195 0 -300 138.5t-105 379.5v367h-201v-371q0 -297 137 -465q152 -182 440 -182h320 q184 29 299 162q117 135 117 311z" />
<glyph unicode="&#x64a;" horiz-adv-x="1509" d="M1425 8v135h-376q-190 0 -191 256q0 328 254 328h180l33 137h-199q-215 0 -348 -139t-133 -363q0 -184 111 -290q100 -100 262 -101h199q0 -90 -62 -180q-78 -109 -192 -123h-244q-190 0 -298 138.5t-108 379.5v367h-200v-371q0 -297 135 -465q152 -182 442 -182h320 q180 27 297 162q118 133 118 311zM1059 -766q0 53 -36 89t-89 36q-51 0 -87 -36t-36 -89t36 -88t87 -35q53 0 89 36t36 87zM733 -766q0 53 -37 89t-90 36q-49 0 -86 -36t-37 -89t36 -88t87 -35q53 0 90 36t37 87z" />
<glyph unicode="&#x64b;" d="M506 1628l-14 6q-129 -25 -422 -71q-61 -37 -86 -74l446 74q58 36 76 65zM451 1513l-13 7q-152 -29 -422 -72q-61 -37 -86 -74l445 74q56 34 76 65z" />
<glyph unicode="&#x64c;" d="M592 1511q-2 20 -23 35l-4 4q23 49 23 88q0 63 -60 64q-35 0 -80 -39t-45 -74q0 -27 66 -80q-39 -59 -190 -92q66 47 65 99q0 61 -74 61q-70 0 -102 -82q41 47 70 47q47 0 47 -41q0 -49 -99 -110l13 -19q121 6 178 17q96 23 149 90l41 -35q25 51 25 67zM518 1587l-43 31 q29 16 37 10q16 -4 6 -41z" />
<glyph unicode="&#x64d;" d="M506 -403l-10 6q-141 -25 -424 -70q-61 -37 -86 -74l444 74q58 31 76 64zM453 -518l-15 6q-139 -25 -422 -70q-59 -37 -86 -71l447 71q58 31 76 64z" />
<glyph unicode="&#x64e;" d="M715 1495l-10 4l-422 -69q-63 -35 -86 -70l446 70q54 30 72 65z" />
<glyph unicode="&#x64f;" d="M649 1505q-2 16 -22 33l-6 6q20 39 20 74q0 68 -66 68q-55 0 -100 -62q-16 -23 -16 -41q0 -31 67 -82q-47 -61 -282 -115l10 -22q119 6 180 16q94 20 148 88l41 -34q28 61 26 71zM575 1577l-38 29q23 12 30 10q16 -6 8 -39z" />
<glyph unicode="&#x650;" d="M584 -420l-11 6l-421 -67q-61 -37 -89 -70l445 70q58 30 76 61z" />
<glyph unicode="&#x651;" d="M545 1632l-47 -92q27 -61 28 -84q0 -23 -26 -22q-55 12 -56 51q0 4 4.5 28.5t4.5 32.5q2 39 -25 70q-8 -12 -20.5 -28.5t-18.5 -31.5q10 -51 10 -73q4 -27 -8 -42.5t-37 -8.5q-47 6 -32 61q20 82 -21 123q-8 -16 -19.5 -31.5t-15.5 -28.5q10 -18 2 -100q-6 -63 43 -86 q59 -29 111 29q31 -51 84 -39q70 14 69 113q1 67 -30 159z" />
<glyph unicode="&#x652;" d="M459 1536q-8 27 -45 59q-35 25 -64 52q-14 8 -14 39q-57 -70 -84 -105q-53 -72 -53 -117q0 -90 102 -90q61 0 112.5 40t51.5 95q0 15 -6 27zM381 1487q2 -20 -17.5 -33.5t-48.5 -9.5q-55 10 -55 45t41 76q6 -4 49 -37q31 -21 31 -41z" />
<glyph unicode="&#x653;" d="M543 1403l-76 33q-29 -74 -84 -74q-39 0 -104 43q-94 66 -170 65q-111 0 -160 -137l76 -33q31 74 84 74q43 0 104 -43q90 -68 164 -67q111 0 166 139z" />
<glyph unicode="&#x654;" d="M453 1260l-70 83l-76 -8h-100q0 129 86 129q25 2 74 -39l24 64q-59 41 -123 41q-76 0 -120 -54.5t-44 -140.5h-73v-75h422z" />
<glyph unicode="&#x655;" d="M453 -391l-70 86l-76 -8h-100q0 125 86 129q29 0 74 -39l24 63q-59 43 -123 43q-76 0 -120 -55t-44 -141h-73v-78h422z" />
<glyph unicode="&#x660;" horiz-adv-x="538" d="M395 166v278l-252 -61v-283z" />
<glyph unicode="&#x661;" horiz-adv-x="546" d="M403 1331l-260 -59l37 -223v-1051l201 154v899z" />
<glyph unicode="&#x662;" horiz-adv-x="1142" d="M999 1319h-852l-4 -1319h207v1139h297l205 -31z" />
<glyph unicode="&#x663;" horiz-adv-x="1234" d="M1092 874v445l-228 -55l33 -215v-148q0 -88 -84 -88q-49 0 -94 45v461l-223 -55l32 -215v-148q0 -88 -84 -88q-41 0 -96 57v453l-205 -59v-1264h205v664q57 -33 133 -33q109 0 174 67q80 -68 195 -67q109 0 175.5 67t66.5 176z" />
<glyph unicode="&#x664;" horiz-adv-x="1185" d="M1042 0l-147 215l-205 -31h-168q-66 0 -110 45q-61 57 -62 168q0 106 68 162q45 37 88 37h344v184h-309q-51 0 -99 41q-61 59 -61 146q0 172 160 172h92l186 -31l154 211h-438q-160 0 -263 -94q-102 -92 -102 -258q0 -104 78 -187q76 -76 196 -86q-123 -6 -213 -98 q-88 -90 -88 -221q0 -168 101 -271q100 -104 254 -104h544z" />
<glyph unicode="&#x665;" horiz-adv-x="1087" d="M944 963q-147 47 -295 47q-233 0 -369.5 -136.5t-136.5 -365.5q0 -164 97 -279q109 -123 288 -123q393 0 394 359v287zM719 737q4 -70 8 -125t6 -77.5t2 -20.5q0 -244 -207 -244q-82 0 -132 74t-50 205q0 317 258 317q51 0 107 -10z" />
<glyph unicode="&#x666;" horiz-adv-x="1142" d="M999 0v1319h-856l150 -211l203 31h297l2 -1139h204z" />
<glyph unicode="&#x667;" horiz-adv-x="1443" d="M1300 1319h-278q-4 -14 -72 -291q-59 -254 -229 -797q-291 1010 -299 1088h-279l125 -229l340 -1090h228l340 1090z" />
<glyph unicode="&#x668;" horiz-adv-x="1443" d="M1300 0l-124 229l-338 1090h-230l-338 -1090l-127 -229h281l299 1090l238 -885l61 -205h278z" />
<glyph unicode="&#x669;" horiz-adv-x="970" d="M827 1319h-264q-188 0 -305 -121q-115 -121 -115 -315q0 -164 84 -262.5t224 -98.5q88 2 174 29v-551h202v1319zM625 719q-59 -20 -127 -21q-150 0 -150 224q0 121 54.5 188.5t146.5 67.5h76v-459z" />
<glyph unicode="&#x66a;" horiz-adv-x="829" d="M362 1110q0 49 -33.5 82t-82.5 33q-47 0 -81 -35t-34 -80q0 -49 35 -83t80 -34q49 0 82.5 34t33.5 83zM694 1208l-155 49l-426 -1241l153 -45zM719 196.5q0 49.5 -34 82t-81 32.5q-51 0 -84 -32.5t-33 -82t35 -84t82 -34.5q49 0 82 34.5t33 84z" />
<glyph unicode="&#x66b;" horiz-adv-x="526" d="M414 451l-33 71q-115 -31 -191 -119q-76 -90 -77 -190q-6 -96 38 -154.5t117 -58.5q129 0 129 129q0 125 -131 131q-8 16 -8 39q0 51 47.5 95.5t108.5 56.5z" />
<glyph unicode="&#x66c;" horiz-adv-x="526" d="M414 451l-33 71q-115 -31 -191 -119q-76 -90 -77 -190q-6 -96 38 -154.5t117 -58.5q129 0 129 129q0 125 -131 131q-8 16 -8 39q0 51 47.5 95.5t108.5 56.5z" />
<glyph unicode="&#x66d;" horiz-adv-x="1024" d="M915 502l-18 41l-283 -41l-77 293h-41l-80 -293l-283 43l-18 -43l239 -191l-106 -284l35 -27l233 193l232 -193l34 31l-104 282z" />
<glyph unicode="&#x670;" d="M47 1380h111v500h-111v-500z" />
<glyph unicode="&#x67e;" horiz-adv-x="1802" d="M1718 299v567l-239 -55l39 -262v-203q0 -162 -152 -162h-844q-244 0 -243 299q0 113 96 250h-182q-80 -139 -80 -291q0 -199 104 -321q104 -121 281 -121h919q139 0 220 80t81 219zM1253 -328q0 51 -36.5 87t-90.5 36q-51 0 -88 -34.5t-37 -88.5q0 -49 38 -87t87 -38 q51 0 89 36t38 89zM926 -328q0 51 -37 87t-90 36q-51 0 -88 -34.5t-37 -88.5q0 -49 38 -87t87 -38q51 0 89 36t38 89zM1087 -643q0 51 -36.5 87t-88 36t-88 -36t-36.5 -89q0 -51 36.5 -87t88 -36t88 36t36.5 89z" />
<glyph unicode="&#x686;" horiz-adv-x="1146" d="M848 47q0 82 -84 82t-84 -82q0 -84 84 -84t84 84zM1063 207v352q0 143 -127 236q-125 92 -301 92q-178 0 -299 -96q-129 -102 -129 -279h151q0 203 248 203q252 0 252 -185v-149h-745v-318q0 -449 561 -518l82 125q-203 23 -322 111t-119 217l-2 209h750zM629 47 q0 82 -84 82q-80 0 -80 -82q0 -84 80 -84q84 0 84 84zM737 -162q0 80 -84 80q-80 0 -80 -84q0 -80 80 -80q84 0 84 84z" />
<glyph unicode="&#x698;" horiz-adv-x="544" d="M461 86v780l-244 -55l41 -274l2 -514q0 -305 -283 -396l43 -80q441 123 441 539zM281 1511q0 53 -37 90t-88.5 37t-88 -37.5t-36.5 -89t36.5 -87t88 -35.5t88.5 36.5t37 85.5zM444 1194q0 53 -36.5 89t-88 36t-88 -36t-36.5 -87q0 -53 36.5 -89t87.5 -36q53 0 89 36 t36 87zM119 1194q0 53 -38 89t-89 36q-49 0 -87 -37t-38 -86q0 -53 37 -89t88 -36q53 0 90 36t37 87z" />
<glyph unicode="&#x6a4;" horiz-adv-x="1806" d="M1464 1511q0 53 -35.5 90t-87.5 37q-53 0 -88.5 -37.5t-35.5 -89t35.5 -87t89 -35.5t88 35.5t34.5 86.5zM1630 1194q0 53 -37 89t-90 36q-49 0 -86 -36t-37 -87q0 -53 36 -89t87 -36q53 0 90 36t37 87zM1303 1194q0 53 -36 89t-89 36q-51 0 -87 -36t-36 -87 q0 -55 35.5 -90t87.5 -35q53 0 89 36t36 87zM1722 614q0 141 -86 228q-94 94 -266 94q-125 0 -219 -66q-125 -88 -125 -264q0 -324 344 -323q88 0 133 24q-18 -123 -223 -123h-758q-244 0 -243 299q0 113 96 250h-182q-80 -139 -80 -291q0 -199 104 -321q104 -121 281 -121 h766q238 0 348 123t110 395q2 33 0 96zM1522 610q0 -72 -4 -166q-61 -31 -154 -30q-137 0 -137 178q0 219 149 219q146 0 146 -201z" />
<glyph unicode="&#x6f0;" horiz-adv-x="538" d="M395 166v278l-252 -61v-283z" />
<glyph unicode="&#x6f1;" horiz-adv-x="546" d="M403 1331l-260 -59l37 -223v-1051l201 154v899z" />
<glyph unicode="&#x6f2;" horiz-adv-x="1142" d="M999 1319h-852l-4 -1319h207v1139h297l205 -31z" />
<glyph unicode="&#x6f3;" horiz-adv-x="1234" d="M1092 874v445l-228 -55l33 -215v-148q0 -88 -84 -88q-49 0 -94 45v461l-223 -55l32 -215v-148q0 -88 -84 -88q-41 0 -96 57v453l-205 -59v-1264h205v664q57 -33 133 -33q109 0 174 67q80 -68 195 -67q109 0 175.5 67t66.5 176z" />
<glyph unicode="&#x6f4;" horiz-adv-x="1185" d="M1042 0l-147 215l-205 -31h-168q-66 0 -110 45q-61 57 -62 168q0 106 68 162q45 37 88 37h344v184h-309q-51 0 -99 41q-61 59 -61 146q0 172 160 172h92l186 -31l154 211h-438q-160 0 -263 -94q-102 -92 -102 -258q0 -104 78 -187q76 -76 196 -86q-123 -6 -213 -98 q-88 -90 -88 -221q0 -168 101 -271q100 -104 254 -104h544z" />
<glyph unicode="&#x6f5;" horiz-adv-x="1087" d="M944 963q-147 47 -295 47q-233 0 -369.5 -136.5t-136.5 -365.5q0 -164 97 -279q109 -123 288 -123q393 0 394 359v287zM719 737q4 -70 8 -125t6 -77.5t2 -20.5q0 -244 -207 -244q-82 0 -132 74t-50 205q0 317 258 317q51 0 107 -10z" />
<glyph unicode="&#x6f6;" horiz-adv-x="1142" d="M999 0v1319h-856l150 -211l203 31h297l2 -1139h204z" />
<glyph unicode="&#x6f7;" horiz-adv-x="1443" d="M1300 1319h-278q-4 -14 -72 -291q-59 -254 -229 -797q-291 1010 -299 1088h-279l125 -229l340 -1090h228l340 1090z" />
<glyph unicode="&#x6f8;" horiz-adv-x="1443" d="M1300 0l-124 229l-338 1090h-230l-338 -1090l-127 -229h281l299 1090l238 -885l61 -205h278z" />
<glyph unicode="&#x6f9;" horiz-adv-x="970" d="M827 1319h-264q-188 0 -305 -121q-115 -121 -115 -315q0 -164 84 -262.5t224 -98.5q88 2 174 29v-551h202v1319zM625 719q-59 -20 -127 -21q-150 0 -150 224q0 121 54.5 188.5t146.5 67.5h76v-459z" />
<glyph unicode="&#x2000;" horiz-adv-x="1001" />
<glyph unicode="&#x2001;" horiz-adv-x="2003" />
<glyph unicode="&#x2002;" horiz-adv-x="1001" />
<glyph unicode="&#x2003;" horiz-adv-x="2003" />
<glyph unicode="&#x2004;" horiz-adv-x="667" />
<glyph unicode="&#x2005;" horiz-adv-x="500" />
<glyph unicode="&#x2006;" horiz-adv-x="333" />
<glyph unicode="&#x2007;" horiz-adv-x="333" />
<glyph unicode="&#x2008;" horiz-adv-x="250" />
<glyph unicode="&#x2009;" horiz-adv-x="400" />
<glyph unicode="&#x200a;" horiz-adv-x="111" />
<glyph unicode="&#x200c;" horiz-adv-x="40" d="M41 0v1479h-41v-1479h41z" />
<glyph unicode="&#x200d;" horiz-adv-x="40" d="M145 1358l-96 98l96 96l-28 29l-97 -98l-96 98l-28 -29l98 -96l-98 -98l28 -27l76 76v-1407h41v1407l76 -76z" />
<glyph unicode="&#x200e;" horiz-adv-x="40" d="M274 1456l-122 125l-29 -29l74 -73h-197v-1479h41v1438h160l-78 -78l29 -29z" />
<glyph unicode="&#x200f;" horiz-adv-x="40" d="M41 0v1479h-197l74 73l-29 29l-122 -125l122 -125l29 29l-78 78h160v-1438h41z" />
<glyph unicode="&#x2010;" horiz-adv-x="929" d="M49 393h862v80h-862v-80z" />
<glyph unicode="&#x2011;" horiz-adv-x="1011" d="M901 373v102h-788v-102h788z" />
<glyph unicode="&#x2012;" horiz-adv-x="1011" d="M901 373v102h-788v-102h788z" />
<glyph unicode="&#x2013;" horiz-adv-x="1247" d="M1137 373v102h-1024v-102h1024z" />
<glyph unicode="&#x2014;" horiz-adv-x="2271" d="M2161 373v102h-2048v-102h2048z" />
<glyph unicode="&#x201c;" horiz-adv-x="708" d="M381 987h211l-39 330h-127zM111 987h211l-39 330h-127z" />
<glyph unicode="&#x201d;" horiz-adv-x="708" d="M324 1319h-211l39 -330h127zM594 1319h-211l39 -330h127z" />
<glyph unicode="&#x202f;" horiz-adv-x="400" />
<glyph unicode="&#x205f;" horiz-adv-x="500" />
<glyph unicode="&#x2421;" horiz-adv-x="1452" d="M1380 117v63h-260v469h-73v-532h333zM981 117v63h-326v180h293v64h-293v162h314v63h-387v-532h399zM518 387q0 217 -162 254q-27 8 -94 8h-184v-532h194q43 0 84 10q162 39 162 260zM446 387q0 -113 -53 -170q-41 -37 -129 -37h-114v406h112q59 0 90 -11q94 -36 94 -188z " />
<glyph unicode="&#xe000;" horiz-adv-x="1024" d="M0 0v0v0v0v0z" />
<glyph unicode="&#xfd3e;" horiz-adv-x="604" d="M569 -252q-113 129 -163 221q-53 96 -93 267q-31 123 -30 262q0 111 28 254q59 262 258 495l-73 76q-170 -131 -252 -248q-82 -119 -138 -315q-35 -127 -34.5 -262.5t34.5 -261.5q86 -322 390 -564z" />
<glyph unicode="&#xfd3f;" horiz-adv-x="606" d="M530 497.5q0 143.5 -32 262.5q-53 193 -140 315q-84 121 -249 248l-72 -76q197 -229 256 -495q29 -143 29 -254q0 -139 -31 -262q-43 -174 -94 -267q-53 -96 -160 -221l72 -76q307 244 389 564q32 118 32 261.5z" />
<glyph unicode="&#xfeff;" />
<glyph horiz-adv-x="681" />
<glyph horiz-adv-x="573" />
<glyph horiz-adv-x="559" />
<glyph />
</font>
</defs>
</svg>
